<svg xmlns="http://www.w3.org/2000/svg" xmlns:xlink="http://www.w3.org/1999/xlink"><defs><symbol id="icon-adjust-1b301" viewBox="0 0 1792 1792"><path fill="currentColor" d="M896 1440V352q-148 0-273 73T425 623t-73 273 73 273 198 198 273 73zm768-544q0 209-103 385.5T1281.5 1561 896 1664t-385.5-103T231 1281.5 128 896t103-385.5T510.5 231 896 128t385.5 103T1561 510.5 1664 896z"/></symbol><symbol id="icon-calendar-check-o-0d35d" viewBox="0 0 2091 2091"><path fill="currentColor" d="M1452.333 1220l-512 512q-10 9-23 9t-23-9l-288-288q-9-10-9-23t9-22l46-46q9-9 22-9t23 9l220 220 444-444q10-9 23-9t22 9l46 46q9 9 9 22t-9 23zm-1175 700h1408V896h-1408v1024zm384-1216V416q0-14-9-23t-23-9h-64q-14 0-23 9t-9 23v288q0 14 9 23t23 9h64q14 0 23-9t9-23zm768 0V416q0-14-9-23t-23-9h-64q-14 0-23 9t-9 23v288q0 14 9 23t23 9h64q14 0 23-9t9-23zm384-64v1280q0 52-38 90t-90 38h-1408q-52 0-90-38t-38-90V640q0-52 38-90t90-38h128v-96q0-66 47-113t113-47h64q66 0 113 47t47 113v96h384v-96q0-66 47-113t113-47h64q66 0 113 47t47 113v96h128q52 0 90 38t38 90z"/></symbol><symbol id="icon-calendar-o-b8358" viewBox="0 0 1941 1941"><path fill="currentColor" d="M266.667 1792h1408V768h-1408v1024zm384-1216V288q0-14-9-23t-23-9h-64q-14 0-23 9t-9 23v288q0 14 9 23t23 9h64q14 0 23-9t9-23zm768 0V288q0-14-9-23t-23-9h-64q-14 0-23 9t-9 23v288q0 14 9 23t23 9h64q14 0 23-9t9-23zm384-64v1280q0 52-38 90t-90 38h-1408q-52 0-90-38t-38-90V512q0-52 38-90t90-38h128v-96q0-66 47-113t113-47h64q66 0 113 47t47 113v96h384v-96q0-66 47-113t113-47h64q66 0 113 47t47 113v96h128q52 0 90 38t38 90z"/></symbol><symbol id="icon-calendar-f544e" viewBox="0 0 1941 1941"><path fill="currentColor" d="M266.667 1792h288v-288h-288v288zm352 0h320v-288h-320v288zm-352-352h288v-320h-288v320zm352 0h320v-320h-320v320zm-352-384h288V768h-288v288zm736 736h320v-288h-320v288zm-384-736h320V768h-320v288zm768 736h288v-288h-288v288zm-384-352h320v-320h-320v320zm-352-864V288q0-13-9.5-22.5t-22.5-9.5h-64q-13 0-22.5 9.5t-9.5 22.5v288q0 13 9.5 22.5t22.5 9.5h64q13 0 22.5-9.5t9.5-22.5zm736 864h288v-320h-288v320zm-384-384h320V768h-320v288zm384 0h288V768h-288v288zm32-480V288q0-13-9.5-22.5t-22.5-9.5h-64q-13 0-22.5 9.5t-9.5 22.5v288q0 13 9.5 22.5t22.5 9.5h64q13 0 22.5-9.5t9.5-22.5zm384-64v1280q0 52-38 90t-90 38h-1408q-52 0-90-38t-38-90V512q0-52 38-90t90-38h128v-96q0-66 47-113t113-47h64q66 0 113 47t47 113v96h384v-96q0-66 47-113t113-47h64q66 0 113 47t47 113v96h128q52 0 90 38t38 90z"/></symbol><symbol id="icon-futbol-o-fd53f" viewBox="0 0 2091 2091"><path fill="currentColor" d="M758.333 1072l287-208 287 208-109 336h-355zm287-816q182 0 348 71t286 191 191 286 71 348-71 348-191 286-286 191-348 71-348-71-286-191-191-286-71-348 71-348 191-286 286-191 348-71zm619 1350q149-203 149-454v-3l-102 89-240-224 63-323 134 12q-150-206-389-282l53 124-287 159-287-159 53-124q-239 76-389 282l135-12 62 323-240 224-102-89v3q0 251 149 454l30-132 326 40 139 298-116 69q117 39 240 39t240-39l-116-69 139-298 326-40z"/></symbol><symbol id="icon-group-6753d" viewBox="0 0 2240 2240"><path fill="currentColor" d="M753 1280q-162 5-265 128H354q-82 0-138-40.5T160 1249q0-353 124-353 6 0 43.5 21t97.5 42.5T544 981q67 0 133-23-5 37-5 66 0 139 81 256zm1071 637q0 120-73 189.5t-194 69.5H683q-121 0-194-69.5T416 1917q0-53 3.5-103.5t14-109T460 1596t43-97.5 62-81 85.5-53.5 111.5-20q10 0 43 21.5t73 48 107 48 135 21.5 135-21.5 107-48 73-48 43-21.5q61 0 111.5 20t85.5 53.5 62 81 43 97.5 26.5 108.5 14 109 3.5 103.5zM800 640q0 106-75 181t-181 75-181-75-75-181 75-181 181-75 181 75 75 181zm704 384q0 159-112.5 271.5T1120 1408t-271.5-112.5T736 1024t112.5-271.5T1120 640t271.5 112.5T1504 1024zm576 225q0 78-56 118.5t-138 40.5h-134q-103-123-265-128 81-117 81-256 0-29-5-66 66 23 133 23 59 0 119-21.5t97.5-42.5 43.5-21q124 0 124 353zm-128-609q0 106-75 181t-181 75-181-75-75-181 75-181 181-75 181 75 75 181z"/></symbol><symbol id="icon-history-c2c2a" viewBox="0 0 1792 1792"><path fill="currentColor" d="M1664 896q0 156-61 298t-164 245-245 164-298 61q-172 0-327-72.5T305 1387q-7-10-6.5-22.5t8.5-20.5l137-138q10-9 25-9 16 2 23 12 73 95 179 147t225 52q104 0 198.5-40.5T1258 1258t109.5-163.5T1408 896t-40.5-198.5T1258 534t-163.5-109.5T896 384q-98 0-188 35.5T548 521l137 138q31 30 14 69-17 40-59 40H192q-26 0-45-19t-19-45V256q0-42 40-59 39-17 69 14l130 129q107-101 244.5-156.5T896 128q156 0 298 61t245 164 164 245 61 298zm-640-288v448q0 14-9 23t-23 9H672q-14 0-23-9t-9-23v-64q0-14 9-23t23-9h224V608q0-14 9-23t23-9h64q14 0 23 9t9 23z"/></symbol><symbol id="icon-home-8621d" viewBox="0 0 1941 1941"><path fill="currentColor" d="M1546.667 1120v480q0 26-19 45t-45 19h-384v-384h-256v384h-384q-26 0-45-19t-19-45v-480q0-1 .5-3t.5-3l575-474 575 474q1 2 1 6zm223-69l-62 74q-8 9-21 11h-3q-13 0-21-7l-692-577-692 577q-12 8-24 7-13-2-21-11l-62-74q-8-10-7-23.5t11-21.5l719-599q32-26 76-26t76 26l244 204V416q0-14 9-23t23-9h192q14 0 23 9t9 23v408l219 182q10 8 11 21.5t-7 23.5z"/></symbol><symbol id="icon-logo-3f8ae" viewBox="0 0 256 228"><path d="M210.483 73.824a171.49 171.49 0 00-8.24-2.597c.465-1.9.893-3.777 1.273-5.621 6.238-30.281 2.16-54.676-11.769-62.708-13.355-7.7-35.196.329-57.254 19.526a171.23 171.23 0 00-6.375 5.848 155.866 155.866 0 00-4.241-3.917C100.759 3.829 77.587-4.822 63.673 3.233 50.33 10.957 46.379 33.89 51.995 62.588a170.974 170.974 0 001.892 8.48c-3.28.932-6.445 1.924-9.474 2.98C17.309 83.498 0 98.307 0 113.668c0 15.865 18.582 31.778 46.812 41.427a145.52 145.52 0 006.921 2.165 167.467 167.467 0 00-2.01 9.138c-5.354 28.2-1.173 50.591 12.134 58.266 13.744 7.926 36.812-.22 59.273-19.855a145.567 145.567 0 005.342-4.923 168.064 168.064 0 006.92 6.314c21.758 18.722 43.246 26.282 56.54 18.586 13.731-7.949 18.194-32.003 12.4-61.268a145.016 145.016 0 00-1.535-6.842c1.62-.48 3.21-.974 4.76-1.488 29.348-9.723 48.443-25.443 48.443-41.52 0-15.417-17.868-30.326-45.517-39.844zm-6.365 70.984c-1.4.463-2.836.91-4.3 1.345-3.24-10.257-7.612-21.163-12.963-32.432 5.106-11 9.31-21.767 12.459-31.957 2.619.758 5.16 1.557 7.61 2.4 23.69 8.156 38.14 20.213 38.14 29.504 0 9.896-15.606 22.743-40.946 31.14zm-10.514 20.834c2.562 12.94 2.927 24.64 1.23 33.787-1.524 8.219-4.59 13.698-8.382 15.893-8.067 4.67-25.32-1.4-43.927-17.412a156.726 156.726 0 01-6.437-5.87c7.214-7.889 14.423-17.06 21.459-27.246 12.376-1.098 24.068-2.894 34.671-5.345a134.17 134.17 0 011.386 6.193zM87.276 214.515c-7.882 2.783-14.16 2.863-17.955.675-8.075-4.657-11.432-22.636-6.853-46.752a156.923 156.923 0 011.869-8.499c10.486 2.32 22.093 3.988 34.498 4.994 7.084 9.967 14.501 19.128 21.976 27.15a134.668 134.668 0 01-4.877 4.492c-9.933 8.682-19.886 14.842-28.658 17.94zM50.35 144.747c-12.483-4.267-22.792-9.812-29.858-15.863-6.35-5.437-9.555-10.836-9.555-15.216 0-9.322 13.897-21.212 37.076-29.293 2.813-.98 5.757-1.905 8.812-2.773 3.204 10.42 7.406 21.315 12.477 32.332-5.137 11.18-9.399 22.249-12.634 32.792a134.718 134.718 0 01-6.318-1.979zm12.378-84.26c-4.811-24.587-1.616-43.134 6.425-47.789 8.564-4.958 27.502 2.111 47.463 19.835a144.318 144.318 0 013.841 3.545c-7.438 7.987-14.787 17.08-21.808 26.988-12.04 1.116-23.565 2.908-34.161 5.309a160.342 160.342 0 01-1.76-7.887zm110.427 27.268a347.8 347.8 0 00-7.785-12.803c8.168 1.033 15.994 2.404 23.343 4.08-2.206 7.072-4.956 14.465-8.193 22.045a381.151 381.151 0 00-7.365-13.322zm-45.032-43.861c5.044 5.465 10.096 11.566 15.065 18.186a322.04 322.04 0 00-30.257-.006c4.974-6.559 10.069-12.652 15.192-18.18zM82.802 87.83a323.167 323.167 0 00-7.227 13.238c-3.184-7.553-5.909-14.98-8.134-22.152 7.304-1.634 15.093-2.97 23.209-3.984a321.524 321.524 0 00-7.848 12.897zm8.081 65.352c-8.385-.936-16.291-2.203-23.593-3.793 2.26-7.3 5.045-14.885 8.298-22.6a321.187 321.187 0 007.257 13.246c2.594 4.48 5.28 8.868 8.038 13.147zm37.542 31.03c-5.184-5.592-10.354-11.779-15.403-18.433 4.902.192 9.899.29 14.978.29 5.218 0 10.376-.117 15.453-.343-4.985 6.774-10.018 12.97-15.028 18.486zm52.198-57.817c3.422 7.8 6.306 15.345 8.596 22.52-7.422 1.694-15.436 3.058-23.88 4.071a382.417 382.417 0 007.859-13.026 347.403 347.403 0 007.425-13.565zm-16.898 8.101a358.557 358.557 0 01-12.281 19.815 329.4 329.4 0 01-23.444.823c-7.967 0-15.716-.248-23.178-.732a310.202 310.202 0 01-12.513-19.846h.001a307.41 307.41 0 01-10.923-20.627 310.278 310.278 0 0110.89-20.637l-.001.001a307.318 307.318 0 0112.413-19.761c7.613-.576 15.42-.876 23.31-.876H128c7.926 0 15.743.303 23.354.883a329.357 329.357 0 0112.335 19.695 358.489 358.489 0 0111.036 20.54 329.472 329.472 0 01-11 20.722zm22.56-122.124c8.572 4.944 11.906 24.881 6.52 51.026-.344 1.668-.73 3.367-1.15 5.09-10.622-2.452-22.155-4.275-34.23-5.408-7.034-10.017-14.323-19.124-21.64-27.008a160.789 160.789 0 015.888-5.4c18.9-16.447 36.564-22.941 44.612-18.3zM128 90.808c12.625 0 22.86 10.235 22.86 22.86s-10.235 22.86-22.86 22.86-22.86-10.235-22.86-22.86 10.235-22.86 22.86-22.86z" fill="currentColor"/></symbol><symbol id="icon-map-marker-72ee0" viewBox="0 0 1792 1792"><path fill="currentColor" d="M1152 640q0-106-75-181t-181-75-181 75-75 181 75 181 181 75 181-75 75-181zm256 0q0 109-33 179l-364 774q-16 33-47.5 52t-67.5 19-67.5-19-46.5-52L417 819q-33-70-33-179 0-212 150-362t362-150 362 150 150 362z"/></symbol><symbol id="icon-moon-o-0a8c7" viewBox="0 0 1792 1792"><path fill="currentColor" d="M1390 1303q-54 9-110 9-182 0-337-90T698 977t-90-337q0-192 104-357-201 60-328.5 229T256 896q0 130 51 248.5t136.5 204 204 136.5 248.5 51q144 0 273.5-61.5T1390 1303zm203-85q-94 203-283.5 324.5T896 1664q-156 0-298-61t-245-164-164-245-61-298q0-153 57.5-292.5t156-241.5T577 197.5 867 129q44-2 61 39 18 41-15 72-86 78-131.5 181.5T736 640q0 148 73 273t198 198 273 73q118 0 228-51 41-18 72 13 14 14 17.5 34t-4.5 38z"/></symbol><symbol id="icon-star-o-03260" viewBox="0 0 1941 1941"><path fill="currentColor" d="M1275.667 1132l306-297-422-62-189-382-189 382-422 62 306 297-73 421 378-199 377 199zm527-357q0 22-26 48l-363 354 86 500q1 7 1 20 0 50-41 50-19 0-40-12l-449-236-449 236q-22 12-40 12-21 0-31.5-14.5t-10.5-35.5q0-6 2-20l86-500-364-354q-25-27-25-48 0-37 56-46l502-73 225-455q19-41 49-41t49 41l225 455 502 73q56 9 56 46z"/></symbol><symbol id="icon-star-c2f59" viewBox="0 0 1941 1941"><path fill="currentColor" d="M1802.667 775q0 22-26 48l-363 354 86 500q1 7 1 20 0 21-10.5 35.5t-30.5 14.5q-19 0-40-12l-449-236-449 236q-22 12-40 12-21 0-31.5-14.5t-10.5-35.5q0-6 2-20l86-500-364-354q-25-27-25-48 0-37 56-46l502-73 225-455q19-41 49-41t49 41l225 455 502 73q56 9 56 46z"/></symbol><symbol id="icon-sun-o-028de" viewBox="0 0 2091 2091"><path fill="currentColor" d="M1621.333 1152q0-117-45.5-223.5t-123-184-184-123-223.5-45.5-223.5 45.5-184 123-123 184-45.5 223.5 45.5 223.5 123 184 184 123 223.5 45.5 223.5-45.5 184-123 123-184 45.5-223.5zm276 277q-4 15-20 20l-292 96v306q0 16-13 26-15 10-29 4l-292-94-180 248q-10 13-26 13t-26-13l-180-248-292 94q-14 6-29-4-13-10-13-26v-306l-292-96q-16-5-20-20-5-17 4-29l180-248-180-248q-9-13-4-29 4-15 20-20l292-96V453q0-16 13-26 15-10 29-4l292 94 180-248q9-12 26-12t26 12l180 248 292-94q14-6 29 4 13 10 13 26v306l292 96q16 5 20 20 5 16-4 29l-180 248 180 248q9 12 4 29z"/></symbol></defs><view id="view-icon-adjust-1b301" viewBox="0 0 50 50"></view><view id="view-icon-calendar-check-o-0d35d" viewBox="50 0 50 50"></view><view id="view-icon-calendar-o-b8358" viewBox="100 0 50 50"></view><view id="view-icon-calendar-f544e" viewBox="150 0 50 50"></view><view id="view-icon-futbol-o-fd53f" viewBox="200 0 50 50"></view><view id="view-icon-group-6753d" viewBox="250 0 50 50"></view><view id="view-icon-history-c2c2a" viewBox="300 0 50 50"></view><view id="view-icon-home-8621d" viewBox="350 0 50 50"></view><view id="view-icon-logo-3f8ae" viewBox="400 0 56.14 50"></view><view id="view-icon-map-marker-72ee0" viewBox="500 0 50 50"></view><view id="view-icon-moon-o-0a8c7" viewBox="550 0 50 50"></view><view id="view-icon-star-o-03260" viewBox="600 0 50 50"></view><view id="view-icon-star-c2f59" viewBox="650 0 50 50"></view><view id="view-icon-sun-o-028de" viewBox="700 0 50 50"></view><use id="icon-adjust-1b301" xlink:href="#icon-adjust-1b301" width="50" height="50" x="0" y="0"></use><use id="icon-calendar-check-o-0d35d" xlink:href="#icon-calendar-check-o-0d35d" width="50" height="50" x="50" y="0"></use><use id="icon-calendar-o-b8358" xlink:href="#icon-calendar-o-b8358" width="50" height="50" x="100" y="0"></use><use id="icon-calendar-f544e" xlink:href="#icon-calendar-f544e" width="50" height="50" x="150" y="0"></use><use id="icon-futbol-o-fd53f" xlink:href="#icon-futbol-o-fd53f" width="50" height="50" x="200" y="0"></use><use id="icon-group-6753d" xlink:href="#icon-group-6753d" width="50" height="50" x="250" y="0"></use><use id="icon-history-c2c2a" xlink:href="#icon-history-c2c2a" width="50" height="50" x="300" y="0"></use><use id="icon-home-8621d" xlink:href="#icon-home-8621d" width="50" height="50" x="350" y="0"></use><use id="icon-logo-3f8ae" xlink:href="#icon-logo-3f8ae" width="56.14" height="50" x="400" y="0"></use><use id="icon-map-marker-72ee0" xlink:href="#icon-map-marker-72ee0" width="50" height="50" x="500" y="0"></use><use id="icon-moon-o-0a8c7" xlink:href="#icon-moon-o-0a8c7" width="50" height="50" x="550" y="0"></use><use id="icon-star-o-03260" xlink:href="#icon-star-o-03260" width="50" height="50" x="600" y="0"></use><use id="icon-star-c2f59" xlink:href="#icon-star-c2f59" width="50" height="50" x="650" y="0"></use><use id="icon-sun-o-028de" xlink:href="#icon-sun-o-028de" width="50" height="50" x="700" y="0"></use></svg>