<svg version="1" xmlns="http://www.w3.org/2000/svg" width="1365.333" height="1365.333" viewBox="0 0 1024.000000 1024.000000"><path d="M704 57.1c-1.9.4-5.3 1-7.5 1.3-2.2.3-5.1.8-6.5 1.1-1.4.3-3.6.8-5 1.1-1.4.3-3.2.7-4 .9-.8.2-1.6.4-1.7.5-.2.2-.6.3-1 .4-.5.1-4.2 1.3-8.3 2.6-4.1 1.3-7.7 2.4-8 2.5-3.5 1.1-27.8 12.1-34.5 15.5-12.5 6.6-31.5 18-34.3 20.7-.7.7-1.7 1.3-2.1 1.3-.6 0-15.4 10.3-19.6 13.7-.6.4-4.8 3.7-9.5 7.3-4.7 3.6-9.6 7.5-11 8.7-1.4 1.2-3.6 3.1-5 4.3-8.3 7-11.7 9.9-15.5 13.5-5.7 5.4-12.4 11.5-15.6 14.3l-2.7 2.2-6.1-5.8c-3.4-3.2-6.1-5.8-6.1-5.6 0 .1-2-1.7-4.5-4-2.4-2.2-5-4.6-5.7-5.1-.7-.6-4-3.3-7.3-6.1-6.9-5.9-8.5-7.2-14-11.3-2.2-1.7-4.7-3.7-5.5-4.4-.8-.8-4.4-3.5-8-6.1-3.6-2.5-7-5-7.7-5.6-5.9-4.8-30.8-20.4-44.7-27.9-4.3-2.3-8.6-4.6-9.5-5.1-4.3-2.4-19.4-9-20.5-9-.6 0-1.6-.4-2.1-.9-2.2-2-28.6-10-42-12.7-6.3-1.3-14.5-1.8-26-1.8-11.8.1-15.8.4-23.5 2.1-1.4.3-3.7.7-5.3 1-1.5.3-3 .9-3.3 1.4-.3.5-1.2.9-2 .9-2.2 0-12.2 5-18.9 9.5-8.5 5.7-18.7 16.1-23.5 24-1.3 2.2-2.7 4.2-3 4.5-.9.6-9.3 18.2-11.3 23.5-1.9 4.8-4.6 13.4-5.1 16.1-.2 1-1.1 4.6-1.9 7.9-2.2 8.9-3.2 15.1-5.3 32.5-1.5 13-.9 58.5 1 74.5.3 2.2.8 6.7 1.1 10 .3 3.3.8 6.9 1 8 .3 1.1.7 3.6.9 5.5.4 3.6 2.2 14.8 3 18.6.2 1.2.7 3.7 1 5.5.3 1.9.8 4.5 1.1 5.9.4 1.4.8 3.8 1.1 5.5.3 1.6 1.2 5.5 1.9 8.5 1.8 7.1 2.6 10.8 3.2 14.5.4 2.9.3 3.1-5.9 4.9-3.5 1.1-6.7 2-7.3 2-1.8.2-26.3 8.6-34.3 11.7-4.2 1.7-8.5 3.2-9.5 3.4-1 .2-3.7 1.3-6 2.3-2.3 1.1-9.6 4.4-16.2 7.2-24.8 10.9-54.6 27.7-67.2 38-.7.6-1.5 1-1.7 1-.6 0-3.7 2.4-6.1 4.7-.8.7-1.8 1.3-2.4 1.3-.6 0-1.1.4-1.1.8s-1.9 2.2-4.2 4c-9.1 6.9-21.6 20-29.6 30.7-2.8 3.8-5.6 7.5-6.1 8.2-.6.6-3 5-5.5 9.7C3.4 483.2.1 496.7.5 512.3c.3 11.5 1.5 18 5.2 28.2 1.4 3.8 2.7 7.8 3 8.8.3.9.9 1.7 1.3 1.7s1.1 1.2 1.5 2.7c.3 1.5 2 4.7 3.6 7.1 1.6 2.3 2.9 4.7 2.9 5.2 0 .4.3 1 .8 1.2.4.1 3.4 3.9 6.7 8.3 7.7 10.2 22.2 24.7 35 34.8 5.5 4.3 10.8 8.5 11.8 9.3.9.8 2 1.4 2.3 1.4.8 0 6.9 4.4 7.2 5.2.2.5 1 .8 1.7.8s1.5.3 1.7.7c.4 1 10.7 7.3 11.8 7.3.5 0 1 .4 1.2.8.5 1.2 34.4 19.3 36.2 19.3.3 0 3.7 1.6 7.6 3.5 3.9 1.9 7.3 3.4 7.6 3.4.3 0 4.5 1.6 9.2 3.6 4.8 2 9.6 4 10.7 4.4 5.8 2.3 20.5 7.3 32.2 11 7.3 2.3 13.3 4.2 13.3 4.3 0 .1-.7 2.6-1.4 5.5-.8 2.9-1.5 5.6-1.5 6-.1.4-.6 2.3-1.1 4.3-.5 1.9-1.2 5.1-1.4 7-.3 1.9-.5 3.4-.6 3.4-.2 0-.7 2.2-1.4 6.5-.4 1.9-.9 4.8-1.2 6.3-.3 1.6-.7 3.8-.9 5-.2 1.2-1 6.7-1.9 12.2-2.4 15.8-3.8 27.5-4 34-.1 2.2-.4 4.5-.8 5-.7 1.3-.2 57.9.6 63 .3 2.2.8 6.1 1.1 8.7.2 2.6 1.4 9.3 2.6 15 4.3 21.1 6.3 27.3 13.9 43.3 14.2 29.9 37.3 48.8 66 54.1 15.2 2.7 35.7 2.3 51-1.1 1.4-.3 3.6-.8 5-1.1 12.8-2.4 34.7-10.4 53-19.1 3-1.5 5.8-2.7 6.2-2.7.4-.1 1.3-.7 1.9-1.4.7-.6 1.7-1.2 2.1-1.2 2.8 0 47.4-27.7 52.1-32.4.8-.9 1.8-1.6 2.2-1.6.3 0 1.1-.5 1.8-1 .7-.6 3-2.4 5.2-4.1 8.2-6.3 11-8.5 17.4-13.9 3.6-3 7.2-5.9 7.9-6.5.7-.5 3.4-3 6.1-5.5 12.9-12 18.1-16.5 19-16.5.7 0 10.4 8.5 21 18.5.9.8 5.7 4.9 10.6 9 5 4.1 9.2 7.8 9.3 8.3.2.4.8.5 1.3.1.5-.3.9-.1.9.4s4.4 4.2 9.8 8.3c5.3 4.1 9.9 7.7 10 8.1.2.5.8.8 1.2.8.5 0 5 2.9 9.9 6.5 5 3.6 9.3 6.5 9.7 6.5.3 0 3.7 2 7.4 4.5 3.7 2.4 7.5 4.8 8.6 5.1 1 .4 3.8 2 6.1 3.6 2.3 1.5 4.8 2.8 5.7 2.8.8 0 1.7.4 2.1.9.6 1 10.7 6 21.5 10.6 3.6 1.5 7.4 3.1 8.5 3.7 1.2.5 2.7 1 3.5 1.2.8.2 2.2.6 3 .9 3.3 1.3 16.3 5.3 20.5 6.3 3.1.7 7.5 1.5 11 2 2.2.3 5.1.9 6.5 1.3 6.3 2 39.5.1 46-2.6.8-.3 1.8-.7 2.3-.8.4-.2.8-.3 1-.4.1-.2 1.3-.4 2.6-.7 2.7-.5 16-7.2 17.9-9.1.7-.7 1.7-1.3 2.1-1.3.4 0 2.1-1.2 3.8-2.8 1.7-1.5 4.2-3.6 5.5-4.8 15.5-13.9 29.1-39.6 36.3-68.9 2.7-11.1 3.3-14 4-20.5.2-1.9.4-3.5.5-3.5.3 0 .7-3.5 1.7-13 .9-9.5.9-62.6-.1-70.5-.4-3-.9-7.3-1.1-9.5-.4-5.1-1.5-13.4-2-16-.2-1.1-.7-4.7-1.1-8-.3-3.3-.8-6.3-1-6.6-.2-.4-.6-2.4-.9-4.5-.9-6.1-5.4-27.3-7-33.4-.8-3-1.2-5.6-.9-5.9.6-.6 7.3-3.1 10.1-3.7 3.4-.7 36-12.3 41.7-14.8 2.8-1.3 5.3-2.3 5.6-2.4 1.9-.3 12.6-5 25.7-11.3 4.5-2.1 8.5-3.9 9-3.9.4 0 1.9-.9 3.3-2s3.3-2 4.2-2c.9 0 1.8-.4 2-.8.2-.4 3.5-2.5 7.3-4.6 24.1-13.1 45.1-28.5 62.9-46.2 17.9-17.8 27.2-30.9 33.4-47.1 1.1-2.7 2.2-5.7 2.7-6.8 1.2-3 1.6-4.8 1.8-7.3 0-1.2.3-2.2.7-2.2.8 0 1.3-6.5 1.3-18 .1-8.7-.6-16.5-1.3-16.5-.1 0-.3-1.1-.6-2.4-.2-1.4-1.2-4.5-2-7-.9-2.5-1.7-5.1-1.9-5.6-.8-3.1-3.1-7.5-3.8-7.5-.4 0-.5-.5-.2-1 .3-.6.1-1-.4-1-.6 0-1.1-.9-1.1-2s-.4-2-1-2c-.5 0-1-.5-1-1 0-1.3-8.3-13.3-13.5-19.5-26.6-31.5-66.1-57.4-126-82.5-13-5.4-39.2-14.6-50-17.4-.5-.2-1.7-.6-2.5-.9-.8-.3-3.2-1.1-5.3-1.7-2.8-.9-3.6-1.6-3.3-2.8.3-1 .7-2.8 1-4.2.2-1.4 1-4.8 1.6-7.5 1.7-7.4 2.4-10.8 3.5-17 .5-3 1.1-5.9 2-10.5.3-1.4.8-4.3 1-6.5.3-2.2.7-5 .9-6.2.3-1.1.8-4.3 1.2-7 .3-2.6.8-5.6 1-6.7.6-3.2 1.8-15.9 1.8-19.4.1-1.7.3-3.2.6-3.2.6 0 .8-7.7 1-32.5.2-23.9-.6-36.9-3.6-53.5-.9-5.2-1.7-10.4-1.8-11.6-.1-1.1-.6-2.5-1-3.2-.4-.7-.5-1.6-.1-2.1.3-.5.1-1.2-.5-1.6-.5-.3-1-1.5-1-2.5 0-1.8-5.2-18.8-7-22.5-7.8-16.8-10.4-22-12-23.5-.3-.3-1.9-2.5-3.5-4.9-4.3-6.5-15.1-17.1-22-21.8-6.3-4.2-16-9.1-19.4-9.8-1.1-.2-2.8-.8-3.8-1.3-1-.6-3.4-1.2-5.3-1.5-1.9-.3-4.6-.9-6-1.2-3.7-1-30-1.3-34-.4zm25.3 43.3c2.6.3 5.5 1 6.5 1.5.9.5 2.1.9 2.5.9 1.4 0 7.1 2.6 9.2 4.2 4.5 3.4 13.4 13.1 14.6 15.9.8 1.7 1.7 3.1 2.1 3.1.5 0 .8.9.8 1.9 0 1.1.4 2.1.9 2.3.9.3 7.6 17.6 8.5 21.9.3 1.3 1.2 5.5 2 9.4 2.4 11 2.7 13.4 4.3 29.5 1.2 13.1.5 53.9-1.1 64-.2 1.4-.8 5.6-1.2 9.5-.5 3.8-.9 7.4-.9 8-.2 1.6-1.7 11.8-2 13.5-.6 3.6-1.9 10.6-2.1 12-.1.8-.5 2.8-.9 4.5-.3 1.6-1.3 6.4-2.2 10.5-.8 4.1-1.6 7.9-1.7 8.5-.2.5-.6 2.6-1 4.6-.7 3.3-1 3.6-3.9 3.3-1.8-.3-4.1-.7-5.2-1.1-1.1-.3-3-.8-4.2-1-2.9-.5-5.7-1-11.3-2.3-2.5-.5-8.3-1.7-13-2.6-4.7-.8-9.6-1.7-11-2-1.4-.2-4.1-.7-6-1-1.9-.2-4.6-.7-6-1-2.8-.5-4.3-.7-14.5-2.3-8.8-1.4-14.2-2.1-18-2.5-1.6-.2-4.8-.7-7-1-3.8-.7-8.8-1.2-18-2-4.1-.4-16.2-1.7-18-2-1.5-.2-4-2.8-7.5-8.1-1.9-2.8-3.8-5.5-4.2-6-.5-.6-5.1-6.9-10.4-14-5.3-7.2-10.1-13.5-10.8-14-.7-.6-1.8-1.9-2.4-3.1-.6-1.2-2.6-3.9-4.4-6.1-1.8-2.2-4.7-5.8-6.5-7.9-1.7-2.2-3.9-4.9-5-6-1-1.2-2.9-3.6-4.3-5.4-2.2-2.8-4-5-8.3-10-.8-.8-4.9-5.6-9.2-10.5-4.3-5-9.3-10.5-11.2-12.4-1.8-1.8-3.3-3.9-3.3-4.5 0-1.3 3.6-4.9 8-7.8 1.4-1 2.1-1.8 1.7-1.8-.4 0 1.6-2.1 4.5-4.7s5.8-5.2 6.4-5.7c8.2-7.9 36-29.7 36.8-28.9.3.4.6.2.6-.4 0-.6 3.7-3.5 8.2-6.4 4.4-3 8.6-5.8 9.2-6.4.6-.6 2.2-1.6 3.6-2.3 1.4-.7 4.5-2.5 7-4.2 8.7-5.6 27.8-15.5 37.5-19.4 3.9-1.5 7.8-3.2 8.7-3.7 1-.5 2.2-.9 2.7-.9s2.2-.5 3.8-1.2c5.6-2.3 19-5.5 26.8-6.3 3.3-.4 6.1-.8 6.2-.9.3-.2 8.2.3 13.6.8zm-410.8 1.7c3.9.6 10.8 2.2 15.5 3.6 4.7 1.3 9 2.6 9.5 2.7.6.2 1.9.7 3 1.1 1.1.5 4.2 1.7 6.9 2.7 2.7 1.1 6.9 2.8 9.2 3.9 2.4 1 4.7 1.9 5.2 1.9s1.5.6 2.1 1.3c.6.8 2.9 2 5.1 2.7 2.2.7 4 1.7 4 2.2 0 .5.5.6 1 .3.6-.3 1-.1 1 .5s.5.8 1 .5c.6-.3 1-.2 1 .4 0 .5 1.6 1.5 3.5 2.2 1.9.7 3.5 1.7 3.5 2.1 0 .4.4.8.9.8 1.2 0 11.5 6.3 11.9 7.2.2.5.8.8 1.4.8.6 0 3.3 1.6 5.9 3.5 2.7 1.9 5.4 3.5 5.9 3.5.6 0 1 .5 1 1 0 .6.8 1.4 1.8 1.7 3 1.1 38.8 29.1 45.2 35.2.9.9 5.2 4.9 9.7 9 6.3 5.7 7.9 7.7 7 8.6-.7.7-4.1 4.5-7.7 8.5-3.6 4.1-6.9 7.8-7.5 8.4-2.1 2.3-8.2 9.4-11.5 13.5-1.9 2.3-4.6 5.5-6 7-1.4 1.6-3.6 4.3-5 6.1-1.4 1.8-3.1 3.9-3.8 4.6-.7.8-5.8 7.1-11.2 14.1-5.5 7.1-10.7 13.7-11.5 14.8-.9 1.1-2.2 2.9-3.1 4-18.5 25.2-19.2 26.1-21.5 26.2-1.3 0-5.1.4-8.4.7-3.3.4-7.6.9-9.6 1.1-10.2 1.1-13.1 1.5-14.1 2.1-.7.5-.8.2-.3-.6.5-.9.4-1.1-.4-.6-.6.4-2.1.9-3.4 1.1-3.7.6-8.9 1.4-14.2 2-2.7.4-6.1.8-7.5 1.1-1.4.2-4.3.6-6.5.9-2.2.3-5.1.7-6.5 1-1.3.3-4 .7-6 1-2 .3-4.7.8-6 1.1-1.4.2-4.1.7-6 1-1.9.2-10.2 1.8-18.4 3.5-8.3 1.6-16.6 3.2-18.5 3.5-2 .3-4.4 1-5.3 1.5-1.9 1-3.8-1.4-4.3-5.5-.1-1.1-1.6-8.2-3.3-15.6-1.7-7.4-3.4-15.5-3.7-18-.4-2.5-.9-5.9-1.2-7.5-.2-1.7-.6-4.1-.8-5.5-.2-1.4-.4-2.5-.5-2.5-.2 0-.4-1.7-1.4-9.5-.3-3-.8-6.9-1-8.5-3.3-25.2-3.3-68.5-.1-83.5.3-1.4.8-4.3 1.1-6.5.3-2.2 1-5.8 1.7-8 .6-2.2 1-4.3.9-4.7-.4-1.5 7-21 9.9-26.3 8.9-16.2 19.9-24.1 36.4-26.2 2.2-.2 4.1-.6 4.2-.7.5-.5 13.2.4 19.8 1.5zM514 232.8c0 .4 3.6 4.5 8 9.2 4.3 4.7 7.9 8.8 8 9.2 0 .3 1.2 1.9 2.8 3.5 1.5 1.5 4.5 5 6.7 7.7s4.5 5.4 5 6c1.2 1.3 17.4 21.8 22.5 28.6 1.9 2.5 3.8 4.6 4.2 4.8.4.2.5.9.2 1.5-.3.8-2.4 1.1-6.2.8-12.1-.7-104.3-.8-104.8 0-.2.5-1.5.4-2.8-.1-1.5-.5-2.7-.5-3.5.3-2.2 2.2-1.1-1.9 1.3-4.9 1.3-1.6 6.1-7.6 10.7-13.4 4.5-5.8 8.5-10.7 8.8-11 .4-.3 2.2-2.5 4.1-5 1.9-2.5 4-5 4.5-5.5.6-.6 4.3-4.8 8.2-9.5 4-4.7 9.9-11.4 13.2-15 3.3-3.6 6.1-6.8 6.1-7.3 0-.9 3-.9 3 .1zm38.5 114.6c8.8.3 18.9.8 22.5 1 3.6.3 11.6.7 17.9 1 6.2.4 12.1 1.1 13 1.6.9.5 1.2 1 .6 1s-.6.3.1.8c1.5 1 7.4 9.9 7.4 11 0 .6.3 1.2.8 1.4.4.1 2.3 2.8 4.2 5.8 1.9 3 3.7 5.7 4 6 1.1.9 12 19.1 12 20 0 .5.3 1 .8 1.2.6.3 12.1 18.8 13.1 21.3.2.5 2.4 4 4.8 7.7 2.3 3.8 4 6.8 3.7 6.8-.3 0 .4 1.2 1.5 2.6 1.2 1.5 2.1 3.3 2.1 4 0 .8.4 1.4.9 1.4s1.1.8 1.4 1.7c.3 1 2.2 4.7 4.3 8.3 8.2 14.5 13.1 23.7 24.7 46.3l6.6 12.8-12.6 24.7c-6.9 13.6-12.9 24.9-13.3 25.2-.4.3-1.1 1.6-1.5 3-.4 1.4-1.1 2.7-1.4 3-.4.3-3.4 5.4-6.8 11.5-9.3 16.9-11 19.9-18.4 32.1-3.8 6.3-6.9 11.7-6.9 11.9 0 .2-1.3 2.4-3 4.8-1.6 2.5-3 4.7-3 5 0 .3-2.5 4.2-5.5 8.7-3 4.5-5.5 8.4-5.5 8.6 0 .8-11.5 17.9-12.2 18.2-.5.2-.8.9-.8 1.7 0 2.4-3 3.7-9.2 4.1-3.5.2-10.1.6-14.8.8-38.5 2.4-112.3 2.4-146 .1-2.5-.1-7.5-.4-11.2-.5-3.7-.2-7-.6-7.5-.9-.4-.3-4.2-5.8-8.3-12.1-4.1-6.3-7.7-11.7-8.1-12-.3-.3-.8-1.2-1.2-2-1-2.2-2.9-5.1-4.9-7.4-1-1.1-1.8-2.6-1.8-3.3 0-.7-.4-1.3-.9-1.3s-1.1-.8-1.5-1.8c-.5-1.7-2.6-5.3-3.6-6.2-.3-.3-2.6-3.9-5-8s-4.9-7.8-5.5-8.2c-.5-.4-.6-.8-.2-.8.4 0-.6-2-2.3-4.4-1.6-2.5-3-4.8-3-5.2 0-.4-.6-1.5-1.4-2.3-.7-.9-2.6-4.1-4.2-7.1s-3.1-5.7-3.4-6c-.3-.3-2-3.4-3.9-7s-3.9-7.2-4.5-8c-.6-.8-2.4-4.2-4.1-7.5-1.6-3.3-3.2-6.2-3.5-6.5-.3-.3-5.4-10.3-11.4-22.2-10.6-21.2-10.9-21.8-9.6-25 .7-1.8 1.9-4 2.6-4.8.7-.8 1.3-1.8 1.3-2.3.2-1.7 23.5-47.1 27.8-53.9 1.3-2.1 2.3-4.2 2.3-4.8 0-.5.5-1 1.2-1 .6 0 .8-.3.5-.7-.4-.3-.3-1.1.2-1.7.5-.6 4.7-7.6 9.3-15.6 11-18.9 19.4-32.4 34.1-55 6.7-10.2 12.1-18.6 12.2-18.7 0-.1 5.2-.5 11.5-.8 6.3-.4 14.7-.9 18.5-1.1 3.9-.2 15.6-.7 26-1 10.5-.3 19.1-.7 19.2-.7.3-.4 43.9.2 58.8.7zM362 356.8c0 .4-.5 1.3-1.1 1.9-.6.6-1.6 2-2.3 3.2-.6 1.1-3.1 5.3-5.6 9.2-7 11.3-8.2 13.3-12.7 21-2.4 3.9-4.3 7.6-4.3 8 0 .5-.4.9-1 .9-.5 0-1 .4-1 .9s-1.9 4.2-4.3 8.3c-2.4 4-6.1 10.4-8.2 14.3-2.1 3.8-4.4 7.9-5.2 9.1-.7 1.1-1 2.4-.6 2.7.3.4.2.7-.4.7-.9 0-3.7 5-3.3 5.9.1.2-.2.7-.7 1-.4.3-2.6 4.1-4.8 8.3-2.2 4.2-4.1 7.5-4.3 7.3-.2-.2-.2-.5-.1-.7.2-.2-.4-1.7-1.3-3.3-2.7-5-5.3-11.4-10.7-26-2.8-7.7-5.6-14.9-6.1-16-1.7-3.9-7-19.2-7-20.3 0-.7-.4-2-.9-3-1.3-2.3-6.1-16.9-6.1-18.4 0-.6.3-.9.6-.5.3.3 1.6.2 2.8-.3 1.3-.4 3.8-1.1 5.7-1.4 3.9-.7 6.3-1.1 13.9-2.8 7.3-1.5 7.9-1.6 12.6-2.1 2.3-.2 4.7-.7 5.2-1.1.6-.4 2.8-.8 4.9-1 4.6-.5 15.8-2.3 15.8-2.6 0-.1 1.4-.3 3-.4 5.1-.6 12.8-1.6 18-2.5 6.8-1.2 9.5-1.2 9.5-.3zm312 .8c5.8.8 12.1 1.7 14 1.9 1.9.2 4.6.7 6 1 2.5.5 6.1 1.1 12.9 2.1 1.9.2 8.9 1.6 15.5 2.9 6.7 1.3 13.5 2.7 15.1 3 1.7.3 4.4.8 6 1.1 1.7.4 3.6.7 4.3.7.6 0 1.2.4 1.2.8 0 .5.7.6 1.5.3.8-.4 2.2-.1 3 .6 1.3 1.1 1.3 1.6-.1 4.1-.8 1.6-1.2 2.9-.9 2.9.4 0 .3.6-.2 1.2-.4.7-.8 1.5-.8 1.8-.2 1.8-4 12.7-4.7 13.4-.4.6-.8 1.6-.8 2.2 0 .7-.5 2.5-1.1 4.1-.6 1.5-1.1 3-1.1 3.3 0 .3-1.2 3.4-2.5 7-1.4 3.6-2.6 7-2.7 7.6-.1.7-.8 1.9-1.5 2.8-.8.9-1.1 1.9-.7 2.3.3.3 0 1.6-.7 2.7-.7 1.2-2.1 4.3-3.1 7.1-1 2.7-2.6 6.8-3.6 9-.9 2.2-2.7 6.6-4 9.8-2.4 6.2-4 8.1-4 4.8 0-1.2-.4-2.1-.9-2.1s-1.4-1.2-2-2.8c-.6-1.5-2.4-5-3.9-7.7-1.6-2.8-4.2-7.5-5.8-10.5-9.1-16.5-13.9-24.6-14.8-25.2-.6-.4-.8-.8-.4-.8.7 0-14.3-25.6-21.8-37.3-2.4-3.7-4.4-7.2-4.4-7.6 0-.5-.3-1.1-.7-1.3-1.2-.5-4.5-6.8-3.6-6.8.4 0 5.5.7 11.3 1.6zm-440.6 43.7c3.3 10 6.3 18.9 6.7 19.7.4.8 2.2 5.5 4 10.5 1.7 4.9 3.8 10.4 4.5 12.2.8 1.7 1.4 3.4 1.4 3.8 0 .4.7 2.1 1.5 3.8.7 1.8 3.5 8.4 6 14.7 2.6 6.3 8 19.2 12.1 28.6l7.6 17.1-5.4 12.4c-2.9 6.8-5.6 12.5-6 12.7-.5.2-.8.9-.8 1.7 0 .7-1 3.4-2.2 6.1-1.2 2.7-2.3 5.1-2.3 5.4-.1.3-.9 2.2-1.8 4.4-.9 2.1-1.7 4-1.7 4.1 0 .1-.8 2-1.7 4.1-.9 2.2-1.8 4.3-1.9 4.9-.2.5-3.3 8.6-6.9 18-3.6 9.3-6.7 17.4-6.9 18-.4 1.7-12.8 39-13 39.2-.1.1-2.7-.6-5.7-1.6-5.9-2-14.1-4.6-14.9-4.6-1.9-.2-8.6-2.7-12.2-4.6-1-.5-2.3-.9-2.9-.9-3.5 0-47.9-19.4-48.7-21.3-.2-.4-1-.7-1.7-.7-1.5 0-9-4-19.8-10.5-4-2.4-8.7-5.2-10.4-6.1-1.8-.9-3.3-2-3.3-2.5s-.5-.9-1-.9c-1.2 0-12.3-8-12.8-9.3-.2-.4-.8-.7-1.4-.7-2.5 0-23.5-19.7-31.1-29.2-10.2-12.7-16.6-27.2-16.8-38.3-.1-2 .8-10 1.1-10 .1 0 .4-1.1.6-2.5 1.1-5.9 9.5-20.8 15.6-27.5C69 462.7 77.3 455 85 449c2.5-1.9 4.7-3.7 5-4.1 2.3-2.8 38.6-24.9 40.9-24.9.6 0 1.1-.5 1.1-1 0-.6.6-1 1.3-1 .7 0 4.3-1.6 8-3.5s7.3-3.5 8.1-3.5c.8 0 1.6-.3 1.8-.8.2-.6 12.9-6.4 14.8-6.8.5-.1 3.2-1.1 10-3.8 1.9-.8 6.2-2.4 9.5-3.7 3.3-1.2 6.9-2.5 8-3 1.1-.4 8.1-2.6 15.5-4.9 7.4-2.3 14-4.3 14.5-4.5 3.5-1.2 4.1-.2 9.9 17.8zM808 386.5c4.7 1.5 9.2 2.8 10 3 3.4.7 32.1 11.2 39.5 14.5 1.1.4 4.5 1.9 7.5 3.1 8.5 3.6 37.5 18.2 37.8 19.1.2.4.8.8 1.4.8 1.4 0 16.2 9 16.6 10.1.2.5.8.9 1.2.9 1.4 0 14.9 9.6 22.4 16 4.4 3.7 16.7 16 20 20 5.5 6.7 12.3 18.5 12.3 21 0 .3.5 1.5 1.1 2.7 1.8 3.4 2.7 13 1.8 19.3-.8 5.2-6.3 19.2-7.8 19.8-.4.2-.8.8-.8 1.3 0 3.1-20.4 25.7-30 33.4-8.4 6.7-10.9 8.5-11.9 8.5-.6 0-1.1.4-1.1.8 0 .8-12 9.1-14.5 10.1-.5.2-2.8 1.7-5.1 3.2-8.5 5.8-56.2 29.1-61.9 30.3-.9.2-13.5 4.8-18 6.6-3.3 1.4-13.9 5.1-15.5 5.4-.8.2-4.1 1.2-7.3 2.1-3.3.9-6.2 1.3-6.6.9-.8-.9-5.3-14.8-5.3-16.1 0-.4-.4-1.6-.9-2.6-.6-.9-2.7-6.5-4.8-12.5-4.9-13.6-7.6-20.9-9.2-24.7-.7-1.7-1.3-3.3-1.4-3.8-.2-.4-.4-.9-.5-1.2-.1-.3-.3-.8-.5-1.3-.2-.9-2.1-5.5-4.2-10.2-2.4-5.6-3-6.9-8.7-20-9.3-21.5-14.7-33.5-15.6-34.4-.9-.9-.2-2.7 8.7-22.6 6.4-14.5 6.4-14.5 9.8-23 1.4-3.6 3-7.4 3.5-8.5 3.1-6.8 10.2-25.4 15.6-41 1.9-5.5 3.8-10.7 4.1-11.5.3-.8.7-1.7.8-2 2.4-9.3 6.8-20.8 7.8-20.5.6.2 5 1.6 9.7 3zm-83 181.7c0 1 .5 1.8 1 1.8.6 0 1 .7 1 1.5s.4 2.3 1 3.3c2.2 3.8 22.2 55.5 23.5 60.7.1.5.4 1.7.7 2.5.3.8 1.5 4.1 2.7 7.3l2.1 5.8-2.7 1c-1.4.5-4.2 1.2-6.2 1.5-2 .3-5.3 1-7.4 1.5-2.1.6-5 1.2-6.5 1.4-1.5.2-5.2.9-8.2 1.5-3 .6-6.8 1.4-8.5 1.6-1.6.3-5.5.9-8.5 1.4-3 .5-7.3 1.2-9.5 1.5-2.2.4-5.1.8-6.5 1.1-1.4.3-4.2.7-6.2.9-2 .3-4.9.7-6.5.9-1.5.3-5 .8-7.8 1.1-2.7.4-6.2.8-7.8 1.1-2.5.4-3.4-1.1-1.6-2.6.3-.3 2.5-3.9 5-8 2.4-4.1 4.8-8 5.4-8.6.5-.6 1.9-2.8 3-5 1.1-2.1 2.3-4.1 2.6-4.4.3-.3 2.2-3.4 4.3-7 2-3.6 5-8.8 6.7-11.5 1.6-2.8 3.2-5.8 3.6-6.8.3-.9.9-1.7 1.4-1.7.5 0 .9-.5.9-1.1 0-.6 1.5-3.7 3.4-6.8 3.7-6.2 9.3-16.4 14-25.6 1.7-3.3 3.4-6.2 3.9-6.3.4-.2.7-1.2.7-2.3 0-1 .4-1.9.9-1.9s1.4-1.5 2.1-3.3l1.1-3.2 1.4 2.5c.8 1.4 1.4 3.3 1.5 4.2zm-418.4 3c2 4 4.7 8.9 6 11 1.3 2.1 2.2 3.8 1.8 3.8-.3 0 .3 1.2 1.4 2.7 1.1 1.6 3.3 5.3 4.9 8.3 5 9.3 11.3 20.3 13.3 23.5 1.1 1.6 2.3 3.6 2.6 4.4.4.8 4.2 7.1 8.4 14s8.3 13.7 9.1 15.1c.8 1.4 1.6 2.7 2 3 .8.8 6.9 11 6.9 11.6 0 .3-.8.3-1.7 0-1-.3-4.3-.8-7.3-1.2-3-.3-6.6-.7-8-.9-1.4-.2-5.2-.6-8.5-1s-6.9-.9-8-1.1c-1.1-.3-3.8-.7-6-1-3.5-.5-18.1-2.8-24-3.9-1.1-.1-5.8-1.1-10.5-2-4.7-.9-9.4-1.9-10.5-2.1-1.1-.2-2.9-.5-4-.8-1.1-.2-2.8-.5-3.7-.5-1.4-.1-1.5-.6-.7-3.4.6-1.7 1.2-3.7 1.3-4.2.2-.6.6-1.7.9-2.5.3-.8 1.3-4 2.2-7 .9-3 2-6.4 2.5-7.5 2.2-5.3 7-19.2 7-20.2 0-.6.7-2.4 1.4-4 1.4-2.6 2.6-5.5 3.2-7.8.1-.6 1.9-5.1 3.9-10 2-5 4.5-11 5.5-13.5.9-2.5 2.2-5.7 2.9-7.3.6-1.5 1.3-2.7 1.6-2.7.2 0 2.1 3.2 4.1 7.2zm463.3 127.6c.7 2.6 1.3 5.6 1.5 6.7.2 1.1.9 3.8 1.4 6 .6 2.2 1.3 5.3 1.6 7 .3 1.6.7 4.1 1 5.5.3 1.4.7 3.8 1 5.5.3 1.6.7 4.1 1 5.5.5 2.9 3.4 23.5 4.1 30 1.8 16 2.3 42.5 1.2 60.6-.9 14.8-5.5 41.5-8.4 48.4-.3.8-.7 1.7-.8 2-.7 3-3.2 9.3-4.8 12.5-1.2 2.2-2.2 4.6-2.3 5.2-.4 2.1-9.4 14.3-12.7 17.2-1.6 1.4-3.5 3.1-4.2 3.8C743 921 722 925 708 922.5c-1.9-.3-5.1-.8-7-1.1-6.5-.9-25.2-6.8-34-10.7-9.2-4-23.5-11.2-23.8-12-.2-.4-.8-.5-1.3-.1-.5.3-.9 0-.9-.5 0-.6-.4-1.1-1-1.1-.5 0-3.9-1.8-7.5-4s-7-4-7.5-4c-.6 0-1-.5-1-1 0-.6-.6-1-1.4-1-.8 0-1.6-.3-1.8-.8-.4-1-6.5-5.2-7.6-5.2-.5 0-1.7-.9-2.7-2-1-1.1-2.3-2-2.9-2-.7 0-1.8-.9-2.6-2s-1.8-2-2.3-2c-.4 0-1.3-.5-2-1-.7-.6-3.9-3.1-7.2-5.6-13.2-9.9-26-20.7-40.8-34.4-3.2-3-6.3-5.6-6.8-5.8-1.7-.7-.9-2.8 2.2-6.3 1.6-1.9 5.3-6.1 8.2-9.3 2.9-3.2 6.4-7.2 8-8.8 1.5-1.6 2.7-3.2 2.7-3.6 0-.4 1.7-2.5 3.8-4.8 2-2.3 5.1-5.8 6.7-7.9 1.7-2.1 4.2-5.2 5.6-6.9 5.9-7 28-36.5 38.9-51.9 6.4-8.9 8.9-11.7 10.7-11.8 1.3-.1 2.6-.2 3.1-.3.4-.1 4.8-.6 9.7-1.1 20.2-1.9 25.6-2.5 28.5-3.1 1.4-.2 4.3-.7 6.5-.9 7.4-.9 28.3-4 33.5-5.1 1.4-.3 4.1-.7 6-1 1.9-.2 7.3-1.2 12-2 9.8-1.9 9.2-1.7 23-4.7 14.7-3.1 13.7-3.3 14.9 2.1zm-495.6.3c8.4 1.8 16.1 3.3 17.2 3.5 5 .7 9.2 1.4 11.5 1.8 2.6.5 8.3 1.4 13.5 2.1 1.7.3 3.9.7 5.1.9 2.1.4 7.9 1.2 15.9 2.1 2.2.2 5.4.7 7 1 1.7.2 5 .7 7.5 1 2.5.2 6.1.6 8 .9 1.9.2 6.9.7 11 1.1 4.1.3 8.9.7 10.5 1 1.7.2 5.3.5 8.2.6l5.2.2 7.3 9.9c8 10.8 18.2 24.4 20.1 26.8.7.8 2.6 3.3 4.2 5.5 3.2 4.2 4.9 6.4 7.8 9.8 1 1.2 3.5 4.3 5.5 6.9 2 2.7 4 4.8 4.4 4.8.4 0 .8.4.8.9 0 .6 1.1 2.2 2.6 3.7 1.4 1.6 5.1 5.9 8.2 9.8 3.1 3.8 7.1 8.4 8.7 10.1 1.7 1.8 5.9 6.5 9.5 10.5 3.6 4 7.1 8 7.9 8.8 1.3 1.2.8 2-3.6 6.1-10.3 9.4-16.1 14.7-20.3 18.1-2.3 1.9-4.9 4.2-5.9 5-4.7 4.2-20.2 16-21.1 16-.5 0-1 .4-1 .8 0 .7-3.1 3-15.4 11.2-1.2.8-4.4 2.8-7 4.5-2.7 1.6-6.4 4-8.2 5.2-5.3 3.5-22.6 12.7-30.4 16.1-2.5 1.1-6.6 2.9-9.2 4.1-2.6 1.1-4.9 2.1-5.2 2.1-.2 0-1.7.5-3.3 1.2-1.5.6-3.1 1.2-3.5 1.3-.5.2-.9.3-1 .5-.3.1-2.1.6-5 1.3-.7.1-1.7.5-2.3.8-.9.6-7.4 2.1-19 4.5-6.1 1.2-25.6 1.1-30.8-.3-8.3-2.1-15.5-6.2-21.2-11.9-5.2-5.2-13.5-17.9-13.5-20.6 0-.8-.4-1.8-.9-2.4-.9-.9-4.3-10.5-5.7-15.9-.4-1.7-.8-3.5-1-4-.8-2.9-1.5-6.3-1.9-9-.2-1.7-.6-4.4-.9-6.1-3.2-17.2-3.8-55.7-1.2-75.9.2-1.7.7-6.1 1.1-10 .3-3.8.8-7.2 1-7.5.2-.3.6-3.2.9-6.5.3-3.3.8-7.1 1.1-8.5.9-3.7 1.3-6 2-10.4.4-3.3 1.9-10.4 4-20.1.3-1.1.8-3.6 1.2-5.5.4-1.9.8-3.7.9-4 .1-.3.5-2 .9-3.8.4-1.7 1.2-3.2 1.7-3.2s7.8 1.4 16.1 3.1zm204.3 21.2c.3.3 1.7.2 3-.3 1.4-.6 2.6-.6 2.9 0 .4.7 1.3.6 2.6 0 1-.6 1.9-.7 1.9-.2 0 1 3 .9 4.8-.2.6-.4 1.2-.4 1.2.1 0 .9 38.3.9 39.8-.1.6-.3 1.3-.2 1.7.4.4.7 1.2.7 2.5 0s2.1-.7 2.5 0c.4.6 1.1.8 1.6.4 1.4-.8 29.9-1.6 29.9-.8 0 .3-1 1.9-2.2 3.4-1.3 1.5-3 3.7-3.8 5-5.1 7.5-36.9 46.5-50.8 62.2l-2.4 2.6-2.6-2.8c-1.5-1.5-4.7-5.1-7.2-8-2.5-2.8-5.6-6.4-7-7.9-1.4-1.5-4.7-5.3-7.5-8.6-2.7-3.2-5.4-6.3-6-6.9-.5-.6-2.8-3.4-5-6.1-2.2-2.8-4.3-5.2-4.7-5.3-.5-.2-.8-1-.8-1.8s-.4-1.4-.9-1.4-2.6-2.4-4.7-5.3c-2.1-2.8-4.1-5.4-4.4-5.7-.3-.3-2.9-3.5-5.7-7.1l-5.2-6.5 12.9.1c7.2.1 13.3.4 13.6.8z"/><path d="M503.8 419.6c-.2.1-2.3.5-4.8.7-28.5 3.3-57 24.4-69.8 51.7-1.1 2.5-2.2 5.2-2.4 6-.2.8-.6 1.7-.9 2-.4.3-1 2.1-1.3 4.1-.3 2-1 4.7-1.5 6.1-2.4 6.4-3 25.2-1.1 35.8.6 3.6 2.1 9.4 3.3 13 1.2 3.6 2.1 6.7 2.2 7 .1 1.3 9.8 17.8 12.3 20.9 8.1 10 18.4 18.6 29.3 24.3 8.6 4.5 13.1 6.2 26.4 9.5 3.7.9 27.3 1.1 31.2.3 2.1-.5 4.9-1.1 6.3-1.3 13.8-2.6 32.2-13.1 43.7-24.8 6.4-6.5 12.3-14.2 12.3-15.8 0-.5.4-1.1.9-1.3.5-.2 2.1-2.8 3.7-5.8 3.2-6.2 2.9-5.5 3.9-9.8.4-1.7 1.2-3.2 1.8-3.2.6 0 .8-.3.4-.6-.3-.3-.2-1.6.3-2.9.5-1.3 1.1-4 1.5-6.2.3-2.1.8-5 1-6.3.3-1.4.6-6.6.7-11.5.1-9.5-.4-13.9-2.6-23.3-1.9-8-11-28.2-12.8-28.2-.4 0-.8-.6-.8-1.4 0-2.2-16.8-18.8-23.6-23.4-7.2-4.8-16.1-9.2-22.4-11.1-2.5-.7-5.6-1.7-7-2.2-4.3-1.4-10.2-2.1-20.2-2.4-5.4-.1-9.9-.1-10 .1z"/></svg>