<svg version="1" xmlns="http://www.w3.org/2000/svg" width="933.333" height="933.333" viewBox="0 0 700.000000 700.000000"><path d="M341.7 92.6c-3.3 1.3-7.4 3.5-9.2 4.9-3.7 2.8-9.2 12.9-10 18.5-1.2 7.6-1.2 16.1-.1 16.8.7.4 2.6 3 4.4 5.8 5.7 9 9.8 11.3 27.1 15.3 7.2 1.7 11.4 3.3 17.8 7.2 9.4 5.7 9.5 6.2 5.1 14.6-2.7 5-3.5 5.4-13.1 5.8-11.5.6-21.2-1.6-27.4-6.2-1.7-1.2-4-2.3-5-2.3-2.3.1-6.4 3.7-8.3 7.4-.8 1.5-2.5 3.9-3.8 5.3-1.3 1.4-2.1 3.1-1.9 3.8.3.6 3.1 2.2 6.4 3.4 3.2 1.3 6.7 2.7 7.8 3.1 3.2 1.4 11.2 3.9 14.2 4.5 1.5.3 4.2.8 5.8 1.1 10.6 2.1 21.9.7 32-4 7.2-3.3 15.5-9.8 15.5-12 0-.6.9-3 2.1-5.1 2-3.8 2.6-10.4 1.6-17.5-.7-4.9-8.8-16-11.8-16-.9 0-1.9-.7-2.2-1.4-.3-.8-2.5-2-4.9-2.6-10-2.6-18-5.5-28.5-10.5-10.9-5.2-11.3-5.5-11.3-8.6 0-1.7 1-5.1 2.2-7.5 2.4-4.8 1.8-4.6 14.8-4.7 8.5-.1 14.1.7 22 3.2 3.5 1.1 6.5 1.9 6.6 1.8 0-.1 1.3-2.7 2.8-5.7 1.5-3 3.6-6.4 4.7-7.6 2.5-2.7 2.4-5.1-.3-5.9-1.3-.4-5.1-1.8-8.6-3.1-6.3-2.5-8-2.7-33.7-3.8-5.4-.2-8.3.2-12.8 2zM106.3 92c-1.7.5-1.8 2.9-1.8 43 .1 46.5-.2 44.2 6.1 52.7 5.3 7.1 20.7 14.9 31.1 15.7 7.3.6 17.6-2.1 28.5-7.3 13.3-6.3 15.8-9.8 18.4-25.6 1.1-7.1 1.3-15.8.8-40.5-.7-39.3-.6-37.2-2.6-37.9-1.4-.5-14.3-.6-19.4-.2-.8.1-1.1 10.9-1.1 38.9 0 41.9.1 40.6-5.7 46.8-3.1 3.3-3.4 3.4-13.1 4l-10 .6-4.7-4.4c-4.5-4.2-4.8-4.7-4.9-9.9-.1-3-.2-9-.4-13.4s-.4-20.3-.5-35.3c-.1-20-.5-27.2-1.3-27.3-7.6-.3-18-.3-19.4.1zM521.4 91.9c-.2.2-.4 24.9-.4 54.8V201h76v-19h-53.8v-12.5l-.1-12.5 3.2-.1h23l19.7.1v-20.9h-44.3c-1.6-.1-1.8-1.2-1.6-12.6l.2-12.5H597V92h-2.7c-19.4-.4-72.6-.4-72.9-.1zM114.2 299.2c-3.4.4-7 .9-8 1.2-1.6.5-1.7 4.4-1.6 55.3.1 30.2.2 55.1.3 55.4 0 .4 4.9.6 10.9.5l10.7-.1v-20.3c0-11.1.2-20.2.5-20.2s3.4-.2 7-.4 7.2-.7 8.1-1.1c3.1-1.2 9.9 10.4 18 30.7 2.2 5.7 4.3 10.5 4.6 10.8.9 1 23.3.8 23.3-.2 0-.6-.6-2.4-1.4-4.1-.7-1.8-2.8-7-4.6-11.7-3.8-9.9-9.5-21.6-11-22.5-3-1.9-.1-8 7.7-16.2 5.7-6 7.6-10.9 7.8-20.3.2-9.8-2.9-19.8-8.1-25.9-3.6-4.3-13.6-9.2-19.8-9.7-20.7-1.8-36.3-2.2-44.4-1.2zm26.3 20.2c14.1.8 16.5 1.7 22.3 7.9 2 2.1 2.2 3.1 1.6 7.6-.7 5.5-5.2 13.7-7.5 13.8-.8.1-7.8.4-15.6.8l-14.3.7-.1-2.8c0-2.9 0-27.2.1-28.7 0-.4 1-.5 2.3-.2 1.2.2 6.3.7 11.2.9zM347 300.2c-16 7.4-17.1 8.1-20.2 12.9-2.7 4.2-5 13.5-5.1 20.7-.1 6.3.1 7.1 3.8 12.2 8 11.3 10.7 13 27.3 16.5 6.2 1.4 10.7 3.2 17.5 7.1 10.2 5.9 10.2 6 6.9 14.2-1.4 3.6-2.3 4.4-5.7 5.4-10.1 2.9-27.4.6-35.5-4.8-5-3.3-6.7-2.7-12.8 4.4-4.8 5.5-5 5.9-3.7 8.7.7 1.7 2.2 3.6 3.5 4.3 3 1.8 18.2 6.7 25.5 8.2 12.1 2.5 27.2 1 37.2-3.7 7-3.4 10.9-7.5 14.6-15.3 2.4-5.4 2.9-7.7 2.8-13.4-.1-6.2-.5-7.6-3.8-12.5-7.3-11.3-9.5-12.7-27.1-17-14-3.5-17.4-4.8-23.3-9.1-5.3-3.8-6.1-6.2-3.8-11.4s9.2-8.8 16.6-8.7c5.7 0 14.7 2.1 22.5 5.2 2.8 1.1 5.2 1.8 5.4 1.7.1-.2 2.3-4.4 4.8-9.3 3.3-6.5 4.2-9.1 3.3-9.7-1.9-1.2-13.8-4.7-18.2-5.3-2.2-.3-4.6-.8-5.3-1-3.4-1.2-24.9-1.4-27.2-.3zM517.8 303.4c-.2 2.2-.1 6.9 0 10.3l.4 6.3H548V411.7h22v-91.6l14.3-.3 14.2-.3v-20l-40.2-.1-40.2-.1-.3 4.1zM137.7 504.6c-1.3.7-5.6 2-9.5 2.9-5.8 1.3-7.6 2.2-9.3 4.6-1.1 1.6-2.9 2.9-3.9 2.9-2.2 0-5.1 3.8-8.8 11.7-2.5 5.5-2.7 6.7-2.8 21.8-.3 25.3 2.5 45.9 7.2 52.7 11.9 17.2 49.2 20.3 66.8 5.5 5.6-4.7 10.1-13.7 11.5-23.2 1-7.3.8-39.5-.4-45.5-1.1-5.5-5.1-15.7-7.5-19.3-3-4.4-9.9-9.5-15.9-11.8-7.9-3-23.5-4.3-27.4-2.3zm18.7 22.2c10.7 5.9 11.8 8.6 11.8 28.7 0 10-.3 13.7-1.8 23-.8 5.3-5.2 12.9-8.9 15.4-6.5 4.4-10.4 4.3-22.8-.7-4.5-1.8-4.4-1.7-6.2-8.4-4.1-16-5-37.3-2-46.6 1.9-5.8 2.6-6.4 10.4-10.9 4.9-2.7 6.3-3.1 11-2.7 2.9.3 6.7 1.3 8.5 2.2zM326.5 505l-8 .5-.1 55.3v55.3l11-.3 11.1-.3.2-9c.1-5 .4-12.8.7-17.5.2-4.7.5-9.6.5-11 .1-2.3.7-2.7 5.9-3.8 4.8-.9 9.1-1.1 12.4-.4.4.1 1.6 3.3 2.8 7.2 1.1 3.8 3.9 10.4 6 14.7 4.3 8.3 8.1 17.8 7.7 19.1-.1.4 5.3.8 12 1l12.2.3-1.6-5.3c-2.4-8.2-7-19.5-11.7-28.5-3.9-7.5-4.2-8.4-3-11.1.6-1.6 3.2-5 5.7-7.5 7.6-7.6 9.1-11.4 9.2-24.1 0-10.6-.1-11.1-3.2-16-8.5-13.7-9.5-14.6-18.8-17.2-6.3-1.7-33.9-2.5-51-1.4zm37.9 20.3c2.5.5 6.6 2.6 9.3 4.6 5.3 4.1 5.5 4.8 3.3 15l-1.3 6-8.8 2.1c-11.2 2.6-25.5 3.6-26.1 1.8-.3-1.1-.3-29.6.1-30.6.3-.7 19.4.2 23.5 1.1zM515 505.9c0 2 4.9 14 8.1 19.8 1.7 3.2 6.2 11.2 10 17.8 3.7 6.6 8.2 15.1 10 18.8 3.6 7.7 3.3 4.5 4.8 51.4.1 2.2.4 2.3 11.1 2.3h11v-20.3c0-17.5.3-21.2 1.9-26 1.9-5.5 7-16.2 11.5-24.1 5.2-9.1 8.3-15.5 11.1-22.6 2.9-7.6 7.1-15.2 8.7-15.8.4-.2.6-.8.2-1.3-.3-.5-5.7-.9-12-.9h-11.5l-5.3 11.2c-5.9 12.5-9.6 20.6-13.3 28.7-1.4 3.1-2.8 5-3.3 4.5-1.7-1.8-9.4-18.1-14.6-30.9l-5.3-13-11.5-.3c-7.3-.2-11.6.1-11.6.7z"/></svg>