<svg version="1" xmlns="http://www.w3.org/2000/svg" width="933.333" height="933.333" viewBox="0 0 700.000000 700.000000"><path d="M328.5.6c-20.3 2-27.6 2.8-37.5 4.5-61 10.5-119.5 37.6-166.5 77.2-9.5 8.1-31 29.4-39.4 39.2C38.3 175.7 10.9 239.1 1.8 314c-1.7 13.7-1.7 58.3 0 72 6.9 56.9 22.7 102.8 51.4 149.1 14.5 23.6 31.1 44 52.5 64.9 20.4 20 37.1 33.2 59.2 46.8 46.3 28.7 92.2 44.5 149.1 51.4 13.7 1.7 58.3 1.7 72 0 56.9-6.9 102.8-22.7 149.1-51.4 36-22.2 69.2-52.8 95.8-88.2 32.3-43 54.9-96 64-150.1 3.8-22.3 4.6-32.7 4.6-58.5 0-25.8-.8-36.2-4.6-58.5-10.5-62.7-38.2-121.6-80-170-8.4-9.8-29.9-31.1-39.4-39.2-51.8-43.7-114.8-71-184.5-79.8C379.3 1 337.4-.3 328.5.6zM506 218c22.1 1.7 46.5 5.7 65.8 10.9l4.2 1.2v53.7l-10.9-4.3c-22.4-8.8-41.5-13.2-62.1-14.2-34.4-1.6-52 7.1-52 25.7 0 10.7 5.2 17.1 17.4 21.6 3.5 1.2 18.4 4.8 33.2 7.9 42.6 8.9 59.5 15.6 73 29 8.2 8.2 12.3 15.8 15.5 28.5 1.9 7.4 2.1 10.3 1.6 25-.4 12.7-1 18.2-2.6 23.8-7.2 24.9-22.9 40.4-48.9 48.6-28.8 9.1-74.1 8.5-113.7-1.5-11.1-2.8-27.5-7.9-30.7-9.6l-2.8-1.4V436c0-17.7.4-27 1-27s4.5 1.7 8.8 3.9c27.5 13.8 55.8 21.1 81.7 21.1 19.6 0 31.3-3.6 38.8-11.9 9.6-10.6 6.8-29-5.6-36.1-7.2-4.2-17-7.1-43-13-23.5-5.2-31.9-7.8-42.8-12.8-20.3-9.2-33.2-24-38.6-44.2-2.6-9.7-2.3-31.8.6-42.5 3.6-13.6 8.3-21.9 18-31.6 7.1-7 10.3-9.3 18.1-13.2 19.8-9.8 43.5-13.1 76-10.7zm-326 87.4c0 92.1.1 94.7 6.2 107.9 5.4 11.6 14.5 17.8 29.3 19.6 15.7 1.9 29.4-1.3 37.7-8.8 5.7-5.1 9.1-11.2 12.1-21.9 2.1-7.6 2.1-9.2 2.5-94l.3-86.2h66l-.4 86.7c-.4 95.2-.3 92.7-6.7 112.5-13.6 42.2-51.4 62.8-110.5 60.5-17.6-.7-29.6-2.7-41.9-6.8-32.1-10.7-49.5-30.9-57.9-67.4-2-8.7-2.1-12.1-2.4-97.3l-.4-88.2H180v83.4z"/></svg>