<svg viewBox="0 0 49 49" shape-rendering="crispEdges" preserveAspectRatio="none" xmlns="http://www.w3.org/2000/svg" version="1.1"
     width="450" height="450">
    <path
        d="M 4 4 L 5 4 L 6 4 L 7 4 L 8 4 L 9 4 L 10 4 L 11 4 L 11 5 L 11 6 L 11 7 L 11 8 L 11 9 L 11 10 L 11 11 L 10 11 L 9 11 L 8 11 L 7 11 L 6 11 L 5 11 L 4 11 L 4 10 L 4 9 L 4 8 L 4 7 L 4 6 L 4 5 Z M 5 5 L 5 6 L 5 7 L 5 8 L 5 9 L 5 10 L 6 10 L 7 10 L 8 10 L 9 10 L 10 10 L 10 9 L 10 8 L 10 7 L 10 6 L 10 5 L 9 5 L 8 5 L 7 5 L 6 5 Z"
        fill="#6897bb"/>
    <path d="M 4 12 L 5 12 L 5 13 L 6 13 L 6 14 L 5 14 L 4 14 L 4 13 Z" fill="#6897bb"/>
    <path d="M 4 16 L 5 16 L 5 17 L 4 17 Z" fill="#6897bb"/>
    <path
        d="M 4 18 L 5 18 L 5 17 L 6 17 L 6 16 L 6 15 L 6 14 L 7 14 L 7 13 L 6 13 L 6 12 L 7 12 L 8 12 L 9 12 L 10 12 L 11 12 L 11 13 L 10 13 L 9 13 L 9 14 L 10 14 L 11 14 L 12 14 L 12 15 L 11 15 L 10 15 L 10 16 L 9 16 L 9 17 L 10 17 L 10 18 L 9 18 L 9 19 L 10 19 L 10 20 L 11 20 L 11 21 L 10 21 L 9 21 L 8 21 L 8 20 L 7 20 L 7 21 L 6 21 L 6 20 L 6 19 L 5 19 L 4 19 Z M 7 16 L 7 17 L 7 18 L 7 19 L 8 19 L 8 18 L 8 17 L 8 16 Z"
        fill="#6897bb"/>
    <path d="M 4 21 L 5 21 L 6 21 L 6 22 L 5 22 L 5 23 L 5 24 L 4 24 L 4 23 L 4 22 Z" fill="#6897bb"/>
    <path
        d="M 4 26 L 5 26 L 6 26 L 7 26 L 7 25 L 8 25 L 8 26 L 8 27 L 7 27 L 7 28 L 6 28 L 6 27 L 5 27 L 5 28 L 5 29 L 6 29 L 6 30 L 5 30 L 4 30 L 4 29 L 4 28 L 4 27 Z"
        fill="#6897bb"/>
    <path d="M 4 32 L 5 32 L 5 33 L 5 34 L 5 35 L 5 36 L 5 37 L 4 37 L 4 36 L 4 35 L 4 34 L 4 33 Z" fill="#6897bb"/>
    <path
        d="M 4 38 L 5 38 L 6 38 L 7 38 L 8 38 L 9 38 L 10 38 L 11 38 L 11 39 L 11 40 L 11 41 L 11 42 L 11 43 L 11 44 L 11 45 L 10 45 L 9 45 L 8 45 L 7 45 L 6 45 L 5 45 L 4 45 L 4 44 L 4 43 L 4 42 L 4 41 L 4 40 L 4 39 Z M 5 39 L 5 40 L 5 41 L 5 42 L 5 43 L 5 44 L 6 44 L 7 44 L 8 44 L 9 44 L 10 44 L 10 43 L 10 42 L 10 41 L 10 40 L 10 39 L 9 39 L 8 39 L 7 39 L 6 39 Z"
        fill="#6897bb"/>
    <path
        d="M 5 31 L 6 31 L 6 30 L 7 30 L 7 29 L 7 28 L 8 28 L 8 29 L 9 29 L 9 28 L 10 28 L 11 28 L 12 28 L 12 27 L 12 26 L 11 26 L 11 25 L 12 25 L 12 24 L 13 24 L 13 23 L 13 22 L 14 22 L 14 23 L 14 24 L 15 24 L 15 23 L 15 22 L 16 22 L 16 21 L 17 21 L 18 21 L 19 21 L 19 22 L 18 22 L 18 23 L 18 24 L 17 24 L 17 23 L 16 23 L 16 24 L 17 24 L 17 25 L 16 25 L 16 26 L 17 26 L 17 27 L 16 27 L 15 27 L 15 26 L 15 25 L 14 25 L 14 26 L 14 27 L 14 28 L 14 29 L 13 29 L 13 30 L 12 30 L 12 29 L 11 29 L 10 29 L 10 30 L 9 30 L 8 30 L 8 31 L 8 32 L 7 32 L 6 32 L 5 32 Z"
        fill="#6897bb"/>
    <path d="M 6 6 L 7 6 L 8 6 L 9 6 L 9 7 L 9 8 L 9 9 L 8 9 L 7 9 L 6 9 L 6 8 L 6 7 Z" fill="#6897bb"/>
    <path d="M 6 22 L 7 22 L 7 23 L 7 24 L 6 24 L 6 23 Z" fill="#6897bb"/>
    <path d="M 6 33 L 7 33 L 7 34 L 6 34 Z" fill="#6897bb"/>
    <path d="M 6 35 L 7 35 L 7 36 L 6 36 Z" fill="#6897bb"/>
    <path d="M 6 40 L 7 40 L 8 40 L 9 40 L 9 41 L 9 42 L 9 43 L 8 43 L 7 43 L 6 43 L 6 42 L 6 41 Z" fill="#6897bb"/>
    <path d="M 7 34 L 8 34 L 9 34 L 10 34 L 11 34 L 11 35 L 10 35 L 9 35 L 8 35 L 7 35 Z" fill="#6897bb"/>
    <path d="M 7 36 L 8 36 L 8 37 L 7 37 Z" fill="#6897bb"/>
    <path d="M 8 22 L 9 22 L 10 22 L 11 22 L 11 23 L 10 23 L 9 23 L 9 24 L 9 25 L 8 25 L 8 24 L 8 23 Z" fill="#6897bb"/>
    <path d="M 8 32 L 9 32 L 9 33 L 8 33 Z" fill="#6897bb"/>
    <path d="M 9 26 L 10 26 L 11 26 L 11 27 L 10 27 L 9 27 Z" fill="#6897bb"/>
    <path d="M 9 36 L 10 36 L 11 36 L 11 37 L 10 37 L 9 37 Z" fill="#6897bb"/>
    <path d="M 10 16 L 11 16 L 11 17 L 10 17 Z" fill="#6897bb"/>
    <path d="M 10 18 L 11 18 L 11 19 L 10 19 Z" fill="#6897bb"/>
    <path d="M 10 24 L 11 24 L 11 25 L 10 25 Z" fill="#6897bb"/>
    <path d="M 10 30 L 11 30 L 11 31 L 10 31 Z" fill="#6897bb"/>
    <path d="M 10 32 L 11 32 L 11 33 L 10 33 Z" fill="#6897bb"/>
    <path d="M 11 19 L 12 19 L 12 20 L 11 20 Z" fill="#6897bb"/>
    <path d="M 11 21 L 12 21 L 12 22 L 11 22 Z" fill="#6897bb"/>
    <path d="M 11 23 L 12 23 L 12 24 L 11 24 Z" fill="#6897bb"/>
    <path d="M 11 31 L 12 31 L 12 32 L 11 32 Z" fill="#6897bb"/>
    <path
        d="M 11 35 L 12 35 L 12 34 L 13 34 L 13 35 L 14 35 L 14 34 L 15 34 L 16 34 L 16 35 L 17 35 L 17 36 L 16 36 L 15 36 L 15 37 L 15 38 L 14 38 L 13 38 L 12 38 L 12 37 L 13 37 L 13 36 L 12 36 L 11 36 Z"
        fill="#6897bb"/>
    <path
        d="M 12 6 L 13 6 L 13 5 L 14 5 L 14 6 L 15 6 L 15 5 L 15 4 L 16 4 L 16 5 L 17 5 L 17 6 L 17 7 L 16 7 L 15 7 L 15 8 L 14 8 L 14 7 L 13 7 L 13 8 L 13 9 L 14 9 L 14 10 L 13 10 L 13 11 L 13 12 L 12 12 L 12 11 L 12 10 L 12 9 L 12 8 L 12 7 Z"
        fill="#6897bb"/>
    <path d="M 12 13 L 13 13 L 13 14 L 12 14 Z" fill="#6897bb"/>
    <path d="M 12 15 L 13 15 L 14 15 L 14 16 L 14 17 L 15 17 L 15 18 L 14 18 L 13 18 L 13 19 L 12 19 L 12 18 L 12 17 L 13 17 L 13 16 L 12 16 Z"
          fill="#6897bb"/>
    <path
        d="M 12 39 L 13 39 L 14 39 L 15 39 L 15 38 L 16 38 L 16 39 L 16 40 L 17 40 L 18 40 L 18 41 L 17 41 L 17 42 L 18 42 L 18 41 L 19 41 L 19 42 L 19 43 L 18 43 L 18 44 L 19 44 L 20 44 L 21 44 L 22 44 L 23 44 L 23 45 L 22 45 L 21 45 L 20 45 L 19 45 L 18 45 L 17 45 L 16 45 L 15 45 L 14 45 L 14 44 L 15 44 L 16 44 L 16 43 L 16 42 L 16 41 L 15 41 L 15 42 L 14 42 L 14 43 L 13 43 L 12 43 L 12 42 L 12 41 L 12 40 Z M 13 40 L 13 41 L 14 41 L 14 40 Z"
        fill="#6897bb"/>
    <path d="M 12 44 L 13 44 L 13 45 L 12 45 Z" fill="#6897bb"/>
    <path d="M 13 12 L 14 12 L 14 13 L 13 13 Z" fill="#6897bb"/>
    <path d="M 13 19 L 14 19 L 15 19 L 15 20 L 15 21 L 15 22 L 14 22 L 14 21 L 14 20 L 13 20 Z" fill="#6897bb"/>
    <path d="M 13 30 L 14 30 L 14 31 L 14 32 L 13 32 L 13 31 Z" fill="#6897bb"/>
    <path d="M 14 10 L 15 10 L 15 11 L 14 11 Z" fill="#6897bb"/>
    <path
        d="M 14 14 L 15 14 L 15 13 L 15 12 L 16 12 L 17 12 L 17 13 L 18 13 L 19 13 L 19 14 L 18 14 L 18 15 L 18 16 L 17 16 L 17 17 L 18 17 L 18 18 L 17 18 L 16 18 L 16 17 L 15 17 L 15 16 L 16 16 L 16 15 L 17 15 L 17 14 L 16 14 L 16 15 L 15 15 L 14 15 Z"
        fill="#6897bb"/>
    <path d="M 14 29 L 15 29 L 15 28 L 16 28 L 16 29 L 16 30 L 15 30 L 14 30 Z" fill="#6897bb"/>
    <path d="M 14 32 L 15 32 L 16 32 L 16 33 L 15 33 L 14 33 Z" fill="#6897bb"/>
    <path d="M 15 8 L 16 8 L 16 9 L 15 9 Z" fill="#6897bb"/>
    <path d="M 15 18 L 16 18 L 16 19 L 15 19 Z" fill="#6897bb"/>
    <path d="M 16 10 L 17 10 L 17 11 L 16 11 Z" fill="#6897bb"/>
    <path d="M 16 19 L 17 19 L 18 19 L 18 20 L 17 20 L 16 20 Z" fill="#6897bb"/>
    <path d="M 17 8 L 18 8 L 19 8 L 20 8 L 20 9 L 19 9 L 18 9 L 18 10 L 17 10 L 17 9 Z" fill="#6897bb"/>
    <path d="M 17 25 L 18 25 L 18 26 L 17 26 Z" fill="#6897bb"/>
    <path
        d="M 17 27 L 18 27 L 18 26 L 19 26 L 19 27 L 20 27 L 21 27 L 21 28 L 22 28 L 22 27 L 21 27 L 21 26 L 22 26 L 22 25 L 23 25 L 23 24 L 24 24 L 24 23 L 24 22 L 23 22 L 22 22 L 22 23 L 23 23 L 23 24 L 22 24 L 21 24 L 21 23 L 20 23 L 20 22 L 21 22 L 21 21 L 20 21 L 19 21 L 19 20 L 19 19 L 18 19 L 18 18 L 19 18 L 19 17 L 19 16 L 20 16 L 21 16 L 22 16 L 22 17 L 23 17 L 23 18 L 22 18 L 21 18 L 20 18 L 20 19 L 20 20 L 21 20 L 22 20 L 22 21 L 23 21 L 23 20 L 22 20 L 22 19 L 23 19 L 23 18 L 24 18 L 24 19 L 25 19 L 25 18 L 24 18 L 24 17 L 25 17 L 26 17 L 26 18 L 27 18 L 27 19 L 27 20 L 27 21 L 28 21 L 28 20 L 28 19 L 29 19 L 29 20 L 30 20 L 31 20 L 31 21 L 30 21 L 30 22 L 31 22 L 32 22 L 32 21 L 32 20 L 32 19 L 33 19 L 33 20 L 34 20 L 34 21 L 33 21 L 33 22 L 33 23 L 33 24 L 33 25 L 33 26 L 33 27 L 33 28 L 34 28 L 34 29 L 35 29 L 35 28 L 36 28 L 36 29 L 36 30 L 35 30 L 34 30 L 33 30 L 33 31 L 33 32 L 34 32 L 35 32 L 35 31 L 36 31 L 36 30 L 37 30 L 37 31 L 38 31 L 38 32 L 38 33 L 38 34 L 39 34 L 39 35 L 39 36 L 40 36 L 40 35 L 41 35 L 41 36 L 42 36 L 43 36 L 43 37 L 44 37 L 44 36 L 44 35 L 45 35 L 45 36 L 45 37 L 45 38 L 44 38 L 43 38 L 43 39 L 42 39 L 42 40 L 41 40 L 41 41 L 40 41 L 40 42 L 41 42 L 42 42 L 43 42 L 43 43 L 42 43 L 42 44 L 41 44 L 41 45 L 40 45 L 39 45 L 39 44 L 40 44 L 40 43 L 39 43 L 39 44 L 38 44 L 37 44 L 36 44 L 36 43 L 37 43 L 37 42 L 37 41 L 36 41 L 36 40 L 35 40 L 34 40 L 33 40 L 33 39 L 32 39 L 32 40 L 33 40 L 33 41 L 32 41 L 31 41 L 31 40 L 30 40 L 30 39 L 31 39 L 31 38 L 32 38 L 32 37 L 33 37 L 33 36 L 34 36 L 34 37 L 35 37 L 35 36 L 34 36 L 34 35 L 34 34 L 35 34 L 36 34 L 36 35 L 37 35 L 37 34 L 36 34 L 36 33 L 37 33 L 37 32 L 36 32 L 36 33 L 35 33 L 34 33 L 34 34 L 33 34 L 33 33 L 32 33 L 32 34 L 33 34 L 33 35 L 32 35 L 32 36 L 32 37 L 31 37 L 31 36 L 30 36 L 30 35 L 30 34 L 31 34 L 31 33 L 30 33 L 29 33 L 28 33 L 28 32 L 28 31 L 29 31 L 29 32 L 30 32 L 30 31 L 30 30 L 31 30 L 32 30 L 32 29 L 31 29 L 30 29 L 29 29 L 29 28 L 30 28 L 30 27 L 31 27 L 31 28 L 32 28 L 32 27 L 31 27 L 31 26 L 31 25 L 32 25 L 32 24 L 31 24 L 31 23 L 30 23 L 30 24 L 29 24 L 29 25 L 28 25 L 28 24 L 27 24 L 26 24 L 26 25 L 27 25 L 28 25 L 28 26 L 27 26 L 27 27 L 27 28 L 27 29 L 26 29 L 26 28 L 25 28 L 25 27 L 26 27 L 26 26 L 25 26 L 25 27 L 24 27 L 24 26 L 23 26 L 23 27 L 24 27 L 24 28 L 23 28 L 23 29 L 24 29 L 25 29 L 25 30 L 24 30 L 23 30 L 23 31 L 22 31 L 21 31 L 20 31 L 20 30 L 21 30 L 22 30 L 22 29 L 21 29 L 20 29 L 20 28 L 19 28 L 19 29 L 20 29 L 20 30 L 19 30 L 19 31 L 18 31 L 18 32 L 17 32 L 17 31 L 17 30 L 17 29 L 17 28 Z M 25 20 L 25 21 L 26 21 L 26 20 Z M 26 22 L 26 23 L 27 23 L 28 23 L 29 23 L 29 22 L 28 22 L 27 22 Z M 34 38 L 34 39 L 35 39 L 35 38 Z M 37 37 L 37 38 L 37 39 L 37 40 L 38 40 L 39 40 L 40 40 L 40 39 L 40 38 L 40 37 L 39 37 L 38 37 Z M 38 41 L 38 42 L 39 42 L 39 41 Z"
        fill="#6897bb"/>
    <path
        d="M 17 33 L 18 33 L 19 33 L 20 33 L 20 32 L 21 32 L 22 32 L 22 33 L 21 33 L 21 34 L 21 35 L 21 36 L 22 36 L 23 36 L 23 37 L 24 37 L 25 37 L 25 38 L 25 39 L 24 39 L 24 38 L 23 38 L 23 39 L 22 39 L 22 38 L 22 37 L 21 37 L 21 38 L 20 38 L 19 38 L 19 37 L 20 37 L 20 36 L 19 36 L 19 35 L 20 35 L 20 34 L 19 34 L 19 35 L 18 35 L 17 35 L 17 34 Z"
        fill="#6897bb"/>
    <path d="M 17 38 L 18 38 L 19 38 L 19 39 L 18 39 L 17 39 Z" fill="#6897bb"/>
    <path d="M 18 5 L 19 5 L 19 6 L 18 6 Z" fill="#6897bb"/>
    <path
        d="M 18 10 L 19 10 L 19 11 L 20 11 L 20 10 L 20 9 L 21 9 L 21 10 L 21 11 L 21 12 L 22 12 L 22 13 L 23 13 L 24 13 L 24 12 L 25 12 L 25 13 L 26 13 L 26 14 L 25 14 L 24 14 L 23 14 L 22 14 L 21 14 L 21 15 L 20 15 L 20 14 L 20 13 L 19 13 L 19 12 L 18 12 L 18 11 Z"
        fill="#6897bb"/>
    <path d="M 18 24 L 19 24 L 19 25 L 18 25 Z" fill="#6897bb"/>
    <path d="M 19 4 L 20 4 L 20 5 L 19 5 Z" fill="#6897bb"/>
    <path d="M 19 6 L 20 6 L 20 5 L 21 5 L 21 6 L 21 7 L 20 7 L 19 7 Z" fill="#6897bb"/>
    <path d="M 19 25 L 20 25 L 20 24 L 21 24 L 21 25 L 21 26 L 20 26 L 19 26 Z" fill="#6897bb"/>
    <path d="M 19 31 L 20 31 L 20 32 L 19 32 Z" fill="#6897bb"/>
    <path d="M 19 39 L 20 39 L 21 39 L 21 40 L 21 41 L 20 41 L 20 40 L 19 40 Z" fill="#6897bb"/>
    <path d="M 20 42 L 21 42 L 21 41 L 22 41 L 22 42 L 22 43 L 21 43 L 20 43 Z" fill="#6897bb"/>
    <path d="M 22 4 L 23 4 L 24 4 L 25 4 L 25 5 L 24 5 L 23 5 L 23 6 L 22 6 L 22 5 Z" fill="#6897bb"/>
    <path d="M 22 7 L 23 7 L 23 8 L 22 8 Z" fill="#6897bb"/>
    <path d="M 22 10 L 23 10 L 23 11 L 22 11 Z" fill="#6897bb"/>
    <path d="M 22 33 L 23 33 L 23 34 L 22 34 Z" fill="#6897bb"/>
    <path d="M 22 40 L 23 40 L 23 41 L 22 41 Z" fill="#6897bb"/>
    <path d="M 23 8 L 24 8 L 24 9 L 23 9 Z" fill="#6897bb"/>
    <path d="M 23 11 L 24 11 L 24 12 L 23 12 Z" fill="#6897bb"/>
    <path d="M 23 16 L 24 16 L 24 17 L 23 17 Z" fill="#6897bb"/>
    <path
        d="M 23 41 L 24 41 L 24 40 L 25 40 L 26 40 L 27 40 L 27 39 L 28 39 L 28 40 L 29 40 L 29 41 L 28 41 L 28 42 L 27 42 L 27 41 L 26 41 L 25 41 L 25 42 L 26 42 L 26 43 L 27 43 L 28 43 L 28 44 L 29 44 L 30 44 L 31 44 L 32 44 L 33 44 L 34 44 L 34 45 L 33 45 L 32 45 L 31 45 L 30 45 L 29 45 L 28 45 L 27 45 L 26 45 L 26 44 L 25 44 L 25 45 L 24 45 L 24 44 L 24 43 L 24 42 L 23 42 Z"
        fill="#6897bb"/>
    <path d="M 24 9 L 25 9 L 25 10 L 25 11 L 24 11 L 24 10 Z" fill="#6897bb"/>
    <path d="M 24 31 L 25 31 L 25 30 L 26 30 L 27 30 L 27 31 L 26 31 L 26 32 L 25 32 L 25 33 L 24 33 L 24 32 Z" fill="#6897bb"/>
    <path d="M 24 34 L 25 34 L 26 34 L 26 35 L 26 36 L 25 36 L 25 35 L 24 35 Z" fill="#6897bb"/>
    <path d="M 25 7 L 26 7 L 27 7 L 27 6 L 28 6 L 28 7 L 28 8 L 28 9 L 27 9 L 27 8 L 26 8 L 25 8 Z" fill="#6897bb"/>
    <path d="M 25 11 L 26 11 L 26 12 L 25 12 Z" fill="#6897bb"/>
    <path d="M 25 15 L 26 15 L 26 16 L 25 16 Z" fill="#6897bb"/>
    <path d="M 26 5 L 27 5 L 27 6 L 26 6 Z" fill="#6897bb"/>
    <path d="M 26 9 L 27 9 L 27 10 L 27 11 L 26 11 L 26 10 Z" fill="#6897bb"/>
    <path d="M 26 12 L 27 12 L 27 13 L 26 13 Z" fill="#6897bb"/>
    <path d="M 26 16 L 27 16 L 27 17 L 26 17 Z" fill="#6897bb"/>
    <path d="M 26 32 L 27 32 L 27 33 L 26 33 Z" fill="#6897bb"/>
    <path
        d="M 26 36 L 27 36 L 27 35 L 27 34 L 28 34 L 29 34 L 29 35 L 28 35 L 28 36 L 29 36 L 30 36 L 30 37 L 29 37 L 29 38 L 28 38 L 27 38 L 27 37 L 26 37 Z"
        fill="#6897bb"/>
    <path d="M 26 38 L 27 38 L 27 39 L 26 39 Z" fill="#6897bb"/>
    <path d="M 27 4 L 28 4 L 28 5 L 27 5 Z" fill="#6897bb"/>
    <path d="M 27 13 L 28 13 L 28 12 L 29 12 L 30 12 L 31 12 L 31 13 L 30 13 L 29 13 L 29 14 L 28 14 L 27 14 Z" fill="#6897bb"/>
    <path d="M 27 15 L 28 15 L 29 15 L 29 16 L 28 16 L 27 16 Z" fill="#6897bb"/>
    <path d="M 27 29 L 28 29 L 28 30 L 27 30 Z" fill="#6897bb"/>
    <path d="M 28 10 L 29 10 L 29 11 L 28 11 Z" fill="#6897bb"/>
    <path d="M 28 17 L 29 17 L 29 16 L 30 16 L 31 16 L 32 16 L 32 17 L 33 17 L 33 18 L 32 18 L 31 18 L 31 17 L 30 17 L 30 18 L 29 18 L 28 18 Z"
          fill="#6897bb"/>
    <path d="M 28 26 L 29 26 L 29 27 L 28 27 Z" fill="#6897bb"/>
    <path d="M 28 42 L 29 42 L 29 41 L 30 41 L 31 41 L 31 42 L 32 42 L 32 43 L 31 43 L 30 43 L 29 43 L 28 43 Z" fill="#6897bb"/>
    <path d="M 29 8 L 30 8 L 31 8 L 31 9 L 30 9 L 29 9 Z" fill="#6897bb"/>
    <path d="M 29 14 L 30 14 L 30 15 L 29 15 Z" fill="#6897bb"/>
    <path d="M 29 25 L 30 25 L 30 26 L 29 26 Z" fill="#6897bb"/>
    <path
        d="M 30 6 L 31 6 L 31 5 L 32 5 L 32 6 L 32 7 L 33 7 L 33 8 L 33 9 L 34 9 L 34 8 L 35 8 L 35 7 L 36 7 L 36 6 L 36 5 L 35 5 L 34 5 L 34 6 L 35 6 L 35 7 L 34 7 L 33 7 L 33 6 L 33 5 L 32 5 L 32 4 L 33 4 L 34 4 L 35 4 L 36 4 L 37 4 L 37 5 L 37 6 L 37 7 L 37 8 L 36 8 L 36 9 L 35 9 L 35 10 L 35 11 L 34 11 L 34 10 L 33 10 L 33 11 L 33 12 L 32 12 L 32 11 L 32 10 L 31 10 L 31 9 L 32 9 L 32 8 L 31 8 L 31 7 L 30 7 Z"
        fill="#6897bb"/>
    <path d="M 30 10 L 31 10 L 31 11 L 30 11 Z" fill="#6897bb"/>
    <path d="M 30 18 L 31 18 L 31 19 L 30 19 Z" fill="#6897bb"/>
    <path d="M 30 24 L 31 24 L 31 25 L 30 25 Z" fill="#6897bb"/>
    <path d="M 31 14 L 32 14 L 32 13 L 33 13 L 33 14 L 33 15 L 32 15 L 31 15 Z" fill="#6897bb"/>
    <path d="M 33 12 L 34 12 L 34 13 L 33 13 Z" fill="#6897bb"/>
    <path
        d="M 33 16 L 34 16 L 34 15 L 35 15 L 36 15 L 36 14 L 35 14 L 35 13 L 36 13 L 36 12 L 37 12 L 37 13 L 38 13 L 38 12 L 39 12 L 40 12 L 41 12 L 42 12 L 43 12 L 43 13 L 44 13 L 45 13 L 45 14 L 44 14 L 43 14 L 42 14 L 42 13 L 41 13 L 41 14 L 41 15 L 42 15 L 42 16 L 43 16 L 44 16 L 44 17 L 43 17 L 43 18 L 43 19 L 42 19 L 41 19 L 41 20 L 40 20 L 40 19 L 40 18 L 40 17 L 41 17 L 41 16 L 40 16 L 40 17 L 39 17 L 39 16 L 39 15 L 39 14 L 38 14 L 37 14 L 37 15 L 37 16 L 37 17 L 36 17 L 35 17 L 35 18 L 34 18 L 34 17 L 33 17 Z"
        fill="#6897bb"/>
    <path d="M 33 41 L 34 41 L 35 41 L 35 42 L 36 42 L 36 43 L 35 43 L 35 44 L 34 44 L 34 43 L 34 42 L 33 42 Z" fill="#6897bb"/>
    <path d="M 34 22 L 35 22 L 35 23 L 34 23 Z" fill="#6897bb"/>
    <path d="M 34 24 L 35 24 L 35 25 L 34 25 Z" fill="#6897bb"/>
    <path d="M 35 21 L 36 21 L 36 22 L 35 22 Z" fill="#6897bb"/>
    <path d="M 35 23 L 36 23 L 36 24 L 35 24 Z" fill="#6897bb"/>
    <path d="M 35 25 L 36 25 L 36 26 L 35 26 Z" fill="#6897bb"/>
    <path d="M 36 10 L 37 10 L 37 11 L 36 11 Z" fill="#6897bb"/>
    <path d="M 36 18 L 37 18 L 38 18 L 38 19 L 37 19 L 36 19 Z" fill="#6897bb"/>
    <path d="M 36 22 L 37 22 L 38 22 L 38 23 L 37 23 L 36 23 Z" fill="#6897bb"/>
    <path d="M 36 24 L 37 24 L 38 24 L 38 25 L 37 25 L 36 25 Z" fill="#6897bb"/>
    <path
        d="M 36 26 L 37 26 L 37 27 L 38 27 L 38 26 L 38 25 L 39 25 L 40 25 L 41 25 L 42 25 L 42 24 L 43 24 L 44 24 L 45 24 L 45 25 L 45 26 L 44 26 L 43 26 L 43 27 L 42 27 L 42 28 L 41 28 L 41 27 L 41 26 L 40 26 L 40 27 L 39 27 L 39 28 L 38 28 L 37 28 L 36 28 L 36 27 Z"
        fill="#6897bb"/>
    <path d="M 37 20 L 38 20 L 38 21 L 37 21 Z" fill="#6897bb"/>
    <path
        d="M 38 4 L 39 4 L 40 4 L 41 4 L 42 4 L 43 4 L 44 4 L 45 4 L 45 5 L 45 6 L 45 7 L 45 8 L 45 9 L 45 10 L 45 11 L 44 11 L 43 11 L 42 11 L 41 11 L 40 11 L 39 11 L 38 11 L 38 10 L 38 9 L 38 8 L 38 7 L 38 6 L 38 5 Z M 39 5 L 39 6 L 39 7 L 39 8 L 39 9 L 39 10 L 40 10 L 41 10 L 42 10 L 43 10 L 44 10 L 44 9 L 44 8 L 44 7 L 44 6 L 44 5 L 43 5 L 42 5 L 41 5 L 40 5 Z"
        fill="#6897bb"/>
    <path d="M 38 17 L 39 17 L 39 18 L 38 18 Z" fill="#6897bb"/>
    <path d="M 38 19 L 39 19 L 39 20 L 38 20 Z" fill="#6897bb"/>
    <path d="M 38 21 L 39 21 L 39 20 L 40 20 L 40 21 L 41 21 L 41 22 L 41 23 L 42 23 L 42 24 L 41 24 L 40 24 L 40 23 L 40 22 L 39 22 L 38 22 Z"
          fill="#6897bb"/>
    <path d="M 38 29 L 39 29 L 40 29 L 41 29 L 42 29 L 42 30 L 41 30 L 40 30 L 39 30 L 38 30 Z" fill="#6897bb"/>
    <path d="M 38 38 L 39 38 L 39 39 L 38 39 Z" fill="#6897bb"/>
    <path d="M 39 31 L 40 31 L 40 32 L 40 33 L 39 33 L 39 32 Z" fill="#6897bb"/>
    <path d="M 40 6 L 41 6 L 42 6 L 43 6 L 43 7 L 43 8 L 43 9 L 42 9 L 41 9 L 40 9 L 40 8 L 40 7 Z" fill="#6897bb"/>
    <path
        d="M 40 33 L 41 33 L 41 32 L 41 31 L 42 31 L 42 32 L 43 32 L 43 33 L 44 33 L 44 32 L 45 32 L 45 33 L 45 34 L 44 34 L 43 34 L 43 35 L 42 35 L 41 35 L 41 34 L 40 34 Z"
        fill="#6897bb"/>
    <path d="M 42 20 L 43 20 L 43 21 L 42 21 Z" fill="#6897bb"/>
    <path d="M 42 28 L 43 28 L 43 29 L 42 29 Z" fill="#6897bb"/>
    <path d="M 42 40 L 43 40 L 43 41 L 42 41 Z" fill="#6897bb"/>
    <path d="M 42 44 L 43 44 L 43 45 L 42 45 Z" fill="#6897bb"/>
    <path d="M 43 21 L 44 21 L 44 20 L 45 20 L 45 21 L 45 22 L 44 22 L 43 22 Z" fill="#6897bb"/>
    <path d="M 43 27 L 44 27 L 45 27 L 45 28 L 44 28 L 43 28 Z" fill="#6897bb"/>
    <path d="M 43 39 L 44 39 L 45 39 L 45 40 L 45 41 L 44 41 L 44 40 L 43 40 Z" fill="#6897bb"/>
    <path d="M 43 43 L 44 43 L 44 44 L 43 44 Z" fill="#6897bb"/>
    <path d="M 44 15 L 45 15 L 45 16 L 44 16 Z" fill="#6897bb"/>
    <path d="M 44 17 L 45 17 L 45 18 L 44 18 Z" fill="#6897bb"/>
    <path d="M 44 29 L 45 29 L 45 30 L 44 30 Z" fill="#6897bb"/>

</svg>
