<svg viewBox="4 4 33 33" shape-rendering="crispEdges" xmlns="http://www.w3.org/2000/svg" width="400" height="400">
  <path d="M 4 4 L 5 4 L 6 4 L 7 4 L 8 4 L 9 4 L 10 4 L 11 4 L 11 5 L 11 6 L 11 7 L 11 8 L 11 9 L 11 10 L 11 11 L 10 11 L 9 11 L 8 11 L 7 11 L 6 11 L 5 11 L 4 11 L 4 10 L 4 9 L 4 8 L 4 7 L 4 6 L 4 5 Z M 5 5 L 5 6 L 5 7 L 5 8 L 5 9 L 5 10 L 6 10 L 7 10 L 8 10 L 9 10 L 10 10 L 10 9 L 10 8 L 10 7 L 10 6 L 10 5 L 9 5 L 8 5 L 7 5 L 6 5 Z"
    fill="#ffffff"/>
  <path d="M 4 12 L 5 12 L 5 13 L 4 13 Z" fill="#ffffff"/>
  <path d="M 4 15 L 5 15 L 6 15 L 6 14 L 7 14 L 7 15 L 7 16 L 6 16 L 6 17 L 5 17 L 4 17 L 4 16 Z" fill="#ffffff"/>
  <path d="M 4 18 L 5 18 L 6 18 L 7 18 L 8 18 L 8 19 L 9 19 L 9 20 L 8 20 L 8 21 L 8 22 L 7 22 L 7 21 L 7 20 L 6 20 L 6 21 L 6 22 L 5 22 L 5 21 L 4 21 L 4 20 L 4 19 Z"
    fill="#ffffff"/>
  <path d="M 4 22 L 5 22 L 5 23 L 4 23 Z" fill="#ffffff"/>
  <path d="M 4 24 L 5 24 L 5 25 L 5 26 L 5 27 L 5 28 L 5 29 L 4 29 L 4 28 L 4 27 L 4 26 L 4 25 Z" fill="#ffffff"/>
  <path d="M 4 30 L 5 30 L 6 30 L 7 30 L 8 30 L 9 30 L 10 30 L 11 30 L 11 31 L 11 32 L 11 33 L 11 34 L 11 35 L 11 36 L 11 37 L 10 37 L 9 37 L 8 37 L 7 37 L 6 37 L 5 37 L 4 37 L 4 36 L 4 35 L 4 34 L 4 33 L 4 32 L 4 31 Z M 5 31 L 5 32 L 5 33 L 5 34 L 5 35 L 5 36 L 6 36 L 7 36 L 8 36 L 9 36 L 10 36 L 10 35 L 10 34 L 10 33 L 10 32 L 10 31 L 9 31 L 8 31 L 7 31 L 6 31 Z"
    fill="#ffffff"/>
  <path d="M 5 23 L 6 23 L 6 22 L 7 22 L 7 23 L 8 23 L 8 24 L 8 25 L 9 25 L 9 26 L 8 26 L 8 27 L 7 27 L 7 26 L 6 26 L 6 25 L 7 25 L 7 24 L 6 24 L 5 24 Z"
    fill="#ffffff"/>
  <path d="M 6 6 L 7 6 L 8 6 L 9 6 L 9 7 L 9 8 L 9 9 L 8 9 L 7 9 L 6 9 L 6 8 L 6 7 Z" fill="#ffffff"/>
  <path d="M 6 12 L 7 12 L 8 12 L 9 12 L 10 12 L 11 12 L 11 13 L 10 13 L 10 14 L 11 14 L 11 15 L 10 15 L 9 15 L 8 15 L 8 14 L 7 14 L 7 13 L 6 13 Z"
    fill="#ffffff"/>
  <path d="M 6 27 L 7 27 L 7 28 L 6 28 Z" fill="#ffffff"/>
  <path d="M 6 32 L 7 32 L 8 32 L 9 32 L 9 33 L 9 34 L 9 35 L 8 35 L 7 35 L 6 35 L 6 34 L 6 33 Z" fill="#ffffff"/>
  <path d="M 7 16 L 8 16 L 9 16 L 10 16 L 11 16 L 11 17 L 10 17 L 10 18 L 9 18 L 9 17 L 8 17 L 7 17 Z" fill="#ffffff"/>
  <path d="M 8 27 L 9 27 L 9 28 L 9 29 L 8 29 L 8 28 Z" fill="#ffffff"/>
  <path d="M 9 20 L 10 20 L 11 20 L 11 21 L 10 21 L 10 22 L 11 22 L 11 23 L 10 23 L 10 24 L 9 24 L 9 23 L 9 22 L 9 21 Z" fill="#ffffff"/>
  <path d="M 9 26 L 10 26 L 11 26 L 11 27 L 10 27 L 9 27 Z" fill="#ffffff"/>
  <path d="M 10 18 L 11 18 L 11 19 L 10 19 Z" fill="#ffffff"/>
  <path d="M 10 24 L 11 24 L 11 25 L 10 25 Z" fill="#ffffff"/>
  <path d="M 10 28 L 11 28 L 11 27 L 12 27 L 12 28 L 12 29 L 11 29 L 10 29 Z" fill="#ffffff"/>
  <path d="M 11 13 L 12 13 L 13 13 L 13 14 L 13 15 L 13 16 L 12 16 L 12 15 L 12 14 L 11 14 Z" fill="#ffffff"/>
  <path d="M 11 17 L 12 17 L 13 17 L 13 18 L 14 18 L 14 19 L 15 19 L 15 18 L 15 17 L 14 17 L 13 17 L 13 16 L 14 16 L 15 16 L 16 16 L 17 16 L 17 17 L 17 18 L 17 19 L 17 20 L 16 20 L 15 20 L 15 21 L 15 22 L 16 22 L 16 23 L 17 23 L 17 24 L 16 24 L 15 24 L 15 23 L 14 23 L 13 23 L 13 22 L 12 22 L 12 21 L 13 21 L 14 21 L 14 20 L 13 20 L 12 20 L 11 20 L 11 19 L 12 19 L 12 18 L 11 18 Z"
    fill="#ffffff"/>
  <path d="M 12 6 L 13 6 L 14 6 L 14 5 L 13 5 L 13 4 L 14 4 L 15 4 L 15 5 L 15 6 L 16 6 L 16 5 L 17 5 L 17 4 L 18 4 L 18 5 L 19 5 L 20 5 L 21 5 L 21 6 L 20 6 L 19 6 L 18 6 L 18 7 L 17 7 L 17 8 L 18 8 L 18 9 L 19 9 L 19 8 L 18 8 L 18 7 L 19 7 L 20 7 L 20 8 L 20 9 L 21 9 L 21 10 L 21 11 L 20 11 L 20 10 L 19 10 L 19 11 L 19 12 L 20 12 L 21 12 L 22 12 L 22 13 L 22 14 L 21 14 L 21 15 L 20 15 L 20 16 L 21 16 L 22 16 L 22 17 L 21 17 L 21 18 L 21 19 L 21 20 L 20 20 L 20 21 L 21 21 L 21 22 L 20 22 L 20 23 L 19 23 L 19 22 L 19 21 L 18 21 L 18 20 L 18 19 L 19 19 L 19 18 L 20 18 L 20 17 L 19 17 L 19 16 L 18 16 L 18 15 L 19 15 L 19 14 L 18 14 L 18 13 L 17 13 L 17 12 L 18 12 L 18 11 L 18 10 L 17 10 L 17 11 L 16 11 L 16 10 L 16 9 L 16 8 L 15 8 L 15 7 L 14 7 L 13 7 L 13 8 L 14 8 L 15 8 L 15 9 L 15 10 L 15 11 L 14 11 L 14 10 L 14 9 L 13 9 L 13 10 L 13 11 L 13 12 L 12 12 L 12 11 L 12 10 L 12 9 L 12 8 L 12 7 Z"
    fill="#ffffff"/>
  <path d="M 12 24 L 13 24 L 14 24 L 14 25 L 13 25 L 12 25 Z" fill="#ffffff"/>
  <path d="M 12 29 L 13 29 L 13 28 L 13 27 L 13 26 L 14 26 L 14 27 L 15 27 L 16 27 L 16 28 L 15 28 L 15 29 L 14 29 L 14 30 L 13 30 L 12 30 Z"
    fill="#ffffff"/>
  <path d="M 12 31 L 13 31 L 13 32 L 13 33 L 14 33 L 15 33 L 16 33 L 16 34 L 15 34 L 14 34 L 14 35 L 13 35 L 12 35 L 12 34 L 12 33 L 12 32 Z"
    fill="#ffffff"/>
  <path d="M 12 36 L 13 36 L 13 37 L 12 37 Z" fill="#ffffff"/>
  <path d="M 13 12 L 14 12 L 15 12 L 15 13 L 14 13 L 13 13 Z" fill="#ffffff"/>
  <path d="M 14 14 L 15 14 L 16 14 L 16 13 L 17 13 L 17 14 L 17 15 L 16 15 L 15 15 L 14 15 Z" fill="#ffffff"/>
  <path d="M 14 30 L 15 30 L 15 31 L 14 31 Z" fill="#ffffff"/>
  <path d="M 15 11 L 16 11 L 16 12 L 15 12 Z" fill="#ffffff"/>
  <path d="M 15 25 L 16 25 L 17 25 L 17 26 L 17 27 L 16 27 L 16 26 L 15 26 Z" fill="#ffffff"/>
  <path d="M 15 29 L 16 29 L 16 30 L 15 30 Z" fill="#ffffff"/>
  <path d="M 16 21 L 17 21 L 18 21 L 18 22 L 18 23 L 17 23 L 17 22 L 16 22 Z" fill="#ffffff"/>
  <path d="M 16 28 L 17 28 L 17 27 L 18 27 L 18 26 L 19 26 L 20 26 L 20 27 L 21 27 L 21 28 L 20 28 L 19 28 L 18 28 L 18 29 L 19 29 L 19 30 L 18 30 L 17 30 L 17 29 L 16 29 Z"
    fill="#ffffff"/>
  <path d="M 16 30 L 17 30 L 17 31 L 18 31 L 19 31 L 19 30 L 20 30 L 20 29 L 21 29 L 21 28 L 22 28 L 22 29 L 23 29 L 24 29 L 24 30 L 23 30 L 22 30 L 21 30 L 21 31 L 20 31 L 20 32 L 19 32 L 19 33 L 19 34 L 18 34 L 18 33 L 18 32 L 17 32 L 17 33 L 16 33 L 16 32 L 16 31 Z"
    fill="#ffffff"/>
  <path d="M 16 34 L 17 34 L 17 35 L 18 35 L 19 35 L 19 34 L 20 34 L 20 35 L 20 36 L 20 37 L 19 37 L 18 37 L 17 37 L 17 36 L 16 36 L 16 35 Z"
    fill="#ffffff"/>
  <path d="M 17 24 L 18 24 L 18 23 L 19 23 L 19 24 L 19 25 L 18 25 L 17 25 Z" fill="#ffffff"/>
  <path d="M 18 17 L 19 17 L 19 18 L 18 18 Z" fill="#ffffff"/>
  <path d="M 20 23 L 21 23 L 21 24 L 20 24 Z" fill="#ffffff"/>
  <path d="M 20 25 L 21 25 L 21 26 L 20 26 Z" fill="#ffffff"/>
  <path d="M 20 33 L 21 33 L 21 32 L 22 32 L 22 33 L 22 34 L 21 34 L 20 34 Z" fill="#ffffff"/>
  <path d="M 21 7 L 22 7 L 22 8 L 22 9 L 21 9 L 21 8 Z" fill="#ffffff"/>
  <path d="M 21 20 L 22 20 L 22 21 L 21 21 Z" fill="#ffffff"/>
  <path d="M 21 24 L 22 24 L 22 25 L 21 25 Z" fill="#ffffff"/>
  <path d="M 21 26 L 22 26 L 22 25 L 23 25 L 23 24 L 23 23 L 24 23 L 24 22 L 24 21 L 24 20 L 25 20 L 25 21 L 25 22 L 25 23 L 26 23 L 26 24 L 25 24 L 25 25 L 26 25 L 26 26 L 25 26 L 24 26 L 23 26 L 23 27 L 22 27 L 21 27 Z"
    fill="#ffffff"/>
  <path d="M 21 36 L 22 36 L 22 37 L 21 37 Z" fill="#ffffff"/>
  <path d="M 22 4 L 23 4 L 24 4 L 25 4 L 26 4 L 26 5 L 26 6 L 26 7 L 25 7 L 24 7 L 24 6 L 24 5 L 23 5 L 22 5 Z" fill="#ffffff"/>
  <path d="M 22 9 L 23 9 L 23 10 L 23 11 L 23 12 L 22 12 L 22 11 L 22 10 Z" fill="#ffffff"/>
  <path d="M 22 14 L 23 14 L 23 15 L 24 15 L 24 16 L 23 16 L 22 16 L 22 15 Z" fill="#ffffff"/>
  <path d="M 22 17 L 23 17 L 24 17 L 24 18 L 23 18 L 22 18 Z" fill="#ffffff"/>
  <path d="M 22 22 L 23 22 L 23 23 L 22 23 Z" fill="#ffffff"/>
  <path d="M 22 34 L 23 34 L 23 35 L 24 35 L 25 35 L 26 35 L 26 34 L 27 34 L 27 35 L 27 36 L 28 36 L 29 36 L 29 35 L 30 35 L 30 34 L 31 34 L 32 34 L 32 35 L 31 35 L 31 36 L 30 36 L 30 37 L 29 37 L 28 37 L 27 37 L 26 37 L 26 36 L 25 36 L 24 36 L 24 37 L 23 37 L 23 36 L 22 36 L 22 35 Z"
    fill="#ffffff"/>
  <path d="M 23 8 L 24 8 L 25 8 L 26 8 L 26 9 L 25 9 L 25 10 L 25 11 L 26 11 L 26 12 L 25 12 L 25 13 L 25 14 L 25 15 L 24 15 L 24 14 L 23 14 L 23 13 L 23 12 L 24 12 L 24 11 L 24 10 L 24 9 L 23 9 Z"
    fill="#ffffff"/>
  <path d="M 23 19 L 24 19 L 24 20 L 23 20 Z" fill="#ffffff"/>
  <path d="M 23 32 L 24 32 L 24 31 L 24 30 L 25 30 L 25 29 L 26 29 L 26 30 L 27 30 L 27 29 L 28 29 L 28 28 L 27 28 L 27 29 L 26 29 L 26 28 L 25 28 L 24 28 L 24 27 L 25 27 L 26 27 L 27 27 L 28 27 L 29 27 L 29 26 L 30 26 L 30 27 L 31 27 L 31 28 L 32 28 L 32 27 L 33 27 L 33 26 L 33 25 L 32 25 L 31 25 L 31 24 L 30 24 L 29 24 L 29 23 L 30 23 L 31 23 L 31 22 L 30 22 L 30 21 L 31 21 L 31 20 L 32 20 L 33 20 L 33 21 L 32 21 L 32 22 L 33 22 L 33 23 L 34 23 L 34 22 L 33 22 L 33 21 L 34 21 L 35 21 L 35 22 L 36 22 L 36 23 L 36 24 L 36 25 L 35 25 L 35 24 L 34 24 L 34 25 L 35 25 L 35 26 L 36 26 L 36 27 L 35 27 L 35 28 L 34 28 L 34 29 L 33 29 L 33 30 L 33 31 L 34 31 L 34 30 L 34 29 L 35 29 L 35 30 L 36 30 L 36 31 L 35 31 L 35 32 L 34 32 L 34 33 L 33 33 L 33 34 L 32 34 L 32 33 L 31 33 L 30 33 L 30 34 L 29 34 L 28 34 L 27 34 L 27 33 L 28 33 L 28 32 L 27 32 L 27 33 L 26 33 L 26 32 L 25 32 L 25 33 L 25 34 L 24 34 L 23 34 L 23 33 Z M 29 29 L 29 30 L 29 31 L 29 32 L 30 32 L 31 32 L 32 32 L 32 31 L 32 30 L 32 29 L 31 29 L 30 29 Z"
    fill="#ffffff"/>
  <path d="M 24 18 L 25 18 L 25 19 L 24 19 Z" fill="#ffffff"/>
  <path d="M 25 15 L 26 15 L 26 14 L 27 14 L 27 15 L 27 16 L 28 16 L 28 15 L 28 14 L 29 14 L 29 15 L 30 15 L 31 15 L 31 16 L 30 16 L 30 17 L 31 17 L 31 18 L 31 19 L 31 20 L 30 20 L 30 21 L 29 21 L 28 21 L 28 22 L 27 22 L 27 21 L 26 21 L 26 20 L 27 20 L 27 19 L 28 19 L 28 20 L 29 20 L 29 19 L 29 18 L 29 17 L 28 17 L 28 18 L 27 18 L 27 17 L 26 17 L 26 16 L 25 16 Z"
    fill="#ffffff"/>
  <path d="M 25 19 L 26 19 L 26 20 L 25 20 Z" fill="#ffffff"/>
  <path d="M 26 7 L 27 7 L 27 8 L 26 8 Z" fill="#ffffff"/>
  <path d="M 26 10 L 27 10 L 27 11 L 26 11 Z" fill="#ffffff"/>
  <path d="M 26 18 L 27 18 L 27 19 L 26 19 Z" fill="#ffffff"/>
  <path d="M 26 22 L 27 22 L 27 23 L 26 23 Z" fill="#ffffff"/>
  <path d="M 26 24 L 27 24 L 27 25 L 26 25 Z" fill="#ffffff"/>
  <path d="M 27 4 L 28 4 L 28 5 L 27 5 Z" fill="#ffffff"/>
  <path d="M 27 8 L 28 8 L 28 9 L 27 9 Z" fill="#ffffff"/>
  <path d="M 27 12 L 28 12 L 28 13 L 28 14 L 27 14 L 27 13 Z" fill="#ffffff"/>
  <path d="M 27 25 L 28 25 L 28 26 L 27 26 Z" fill="#ffffff"/>
  <path d="M 28 10 L 29 10 L 29 11 L 28 11 Z" fill="#ffffff"/>
  <path d="M 28 22 L 29 22 L 29 23 L 28 23 Z" fill="#ffffff"/>
  <path d="M 28 24 L 29 24 L 29 25 L 28 25 Z" fill="#ffffff"/>
  <path d="M 30 4 L 31 4 L 32 4 L 33 4 L 34 4 L 35 4 L 36 4 L 37 4 L 37 5 L 37 6 L 37 7 L 37 8 L 37 9 L 37 10 L 37 11 L 36 11 L 35 11 L 34 11 L 33 11 L 32 11 L 31 11 L 30 11 L 30 10 L 30 9 L 30 8 L 30 7 L 30 6 L 30 5 Z M 31 5 L 31 6 L 31 7 L 31 8 L 31 9 L 31 10 L 32 10 L 33 10 L 34 10 L 35 10 L 36 10 L 36 9 L 36 8 L 36 7 L 36 6 L 36 5 L 35 5 L 34 5 L 33 5 L 32 5 Z"
    fill="#ffffff"/>
  <path d="M 30 12 L 31 12 L 32 12 L 33 12 L 34 12 L 35 12 L 35 13 L 35 14 L 36 14 L 36 15 L 35 15 L 35 16 L 34 16 L 34 17 L 35 17 L 35 16 L 36 16 L 36 15 L 37 15 L 37 16 L 37 17 L 37 18 L 36 18 L 36 19 L 35 19 L 35 20 L 34 20 L 33 20 L 33 19 L 34 19 L 34 18 L 33 18 L 33 17 L 32 17 L 32 16 L 32 15 L 32 14 L 33 14 L 33 15 L 34 15 L 34 14 L 33 14 L 33 13 L 32 13 L 32 14 L 31 14 L 30 14 L 30 13 Z"
    fill="#ffffff"/>
  <path d="M 30 25 L 31 25 L 31 26 L 30 26 Z" fill="#ffffff"/>
  <path d="M 30 30 L 31 30 L 31 31 L 30 31 Z" fill="#ffffff"/>
  <path d="M 31 26 L 32 26 L 32 27 L 31 27 Z" fill="#ffffff"/>
  <path d="M 31 36 L 32 36 L 32 37 L 31 37 Z" fill="#ffffff"/>
  <path d="M 32 6 L 33 6 L 34 6 L 35 6 L 35 7 L 35 8 L 35 9 L 34 9 L 33 9 L 32 9 L 32 8 L 32 7 Z" fill="#ffffff"/>
  <path d="M 32 35 L 33 35 L 34 35 L 35 35 L 35 36 L 34 36 L 33 36 L 32 36 Z" fill="#ffffff"/>
  <path d="M 34 33 L 35 33 L 36 33 L 37 33 L 37 34 L 36 34 L 35 34 L 34 34 Z" fill="#ffffff"/>
  <path d="M 35 28 L 36 28 L 37 28 L 37 29 L 37 30 L 36 30 L 36 29 L 35 29 Z" fill="#ffffff"/>
  <path d="M 35 36 L 36 36 L 36 37 L 35 37 Z" fill="#ffffff"/>
  <path d="M 36 13 L 37 13 L 37 14 L 36 14 Z" fill="#ffffff"/>
  <path d="M 36 20 L 37 20 L 37 21 L 37 22 L 36 22 L 36 21 Z" fill="#ffffff"/>
  <path d="M 36 25 L 37 25 L 37 26 L 36 26 Z" fill="#ffffff"/>
  <path d="M 36 31 L 37 31 L 37 32 L 36 32 Z" fill="#ffffff"/>

</svg>
