<svg xmlns="http://www.w3.org/2000/svg" xmlns:xlink="http://www.w3.org/1999/xlink"><defs><symbol id="icon-adjust-7b193" viewBox="0 0 1792 1792"><path d="M896 1440V352q-148 0-273 73T425 623t-73 273 73 273 198 198 273 73zm768-544q0 209-103 385.5T1281.5 1561 896 1664t-385.5-103T231 1281.5 128 896t103-385.5T510.5 231 896 128t385.5 103T1561 510.5 1664 896z" fill="currentColor"/></symbol><symbol id="icon-check-2fc04" viewBox="0 0 2091 2091"><path d="M1820.5 683.5c0 26.667-9.333 49.333-28 68l-724 724-136 136c-18.667 18.667-41.333 28-68 28s-49.333-9.333-68-28l-136-136-362-362c-18.667-18.667-28-41.333-28-68s9.333-49.333 28-68l136-136c18.667-18.667 41.333-28 68-28s49.333 9.333 68 28l294 295 656-657c18.667-18.667 41.333-28 68-28s49.333 9.333 68 28l136 136c18.667 18.667 28 41.333 28 68z" fill="currentColor"/></symbol><symbol id="icon-close-c2f4a" viewBox="0 0 1792 1792"><path d="M1490 1258c0 26.667-9.333 49.333-28 68l-136 136c-18.667 18.667-41.333 28-68 28s-49.333-9.333-68-28l-294-294-294 294c-18.667 18.667-41.333 28-68 28s-49.333-9.333-68-28l-136-136c-18.667-18.667-28-41.333-28-68s9.333-49.333 28-68l294-294-294-294c-18.667-18.667-28-41.333-28-68s9.333-49.333 28-68l136-136c18.667-18.667 41.333-28 68-28s49.333 9.333 68 28l294 294 294-294c18.667-18.667 41.333-28 68-28s49.333 9.333 68 28l136 136c18.667 18.667 28 41.333 28 68s-9.333 49.333-28 68l-294 294 294 294c18.667 18.667 28 41.333 28 68z" fill="currentColor"/></symbol><symbol id="icon-coffee-5fb79" viewBox="0 0 2240 2240"><path d="M1856 800c0-53.333-18.667-98.667-56-136s-82.667-56-136-56h-64v384h64c53.333 0 98.667-18.667 136-56s56-82.667 56-136zM192 1568h1792c0 70.667-25 131-75 181s-110.333 75-181 75H448c-70.667 0-131-25-181-75s-75-110.333-75-181zm1856-768c0 106-37.5 196.5-112.5 271.5S1770 1184 1664 1184h-64v32c0 61.333-22 114-66 158s-96.667 66-158 66H672c-61.333 0-114-22-158-66s-66-96.667-66-158V480c0-17.333 6.333-32.333 19-45 12.667-12.667 27.667-19 45-19h1152c106 0 196.5 37.5 271.5 112.5S2048 694 2048 800z" fill="currentColor"/></symbol><symbol id="icon-favicon-79d8c" viewBox="0 0 2088 2088"><path fill="#d6e4ff" d="M0 0h2088v2088H0z"/><path d="M1819 682c0 26.667-9.333 49.333-28 68l-724 724-136 136c-18.667 18.667-41.333 28-68 28s-49.333-9.333-68-28l-136-136-362-362c-18.667-18.667-28-41.333-28-68s9.333-49.333 28-68l136-136c18.667-18.667 41.333-28 68-28s49.333 9.333 68 28l294 295 656-657c18.667-18.667 41.333-28 68-28s49.333 9.333 68 28l136 136c18.667 18.667 28 41.333 28 68z" fill-opacity=".6"/></symbol><symbol id="icon-favicon_safe-f2ae5" viewBox="-261 -261 2610 2610"><path fill="#d6e4ff" d="M-261-261h2610v2610H-261z"/><path d="M1819 682c0 26.667-9.333 49.333-28 68l-724 724-136 136c-18.667 18.667-41.333 28-68 28s-49.333-9.333-68-28l-136-136-362-362c-18.667-18.667-28-41.333-28-68s9.333-49.333 28-68l136-136c18.667-18.667 41.333-28 68-28s49.333 9.333 68 28l294 295 656-657c18.667-18.667 41.333-28 68-28s49.333 9.333 68 28l136 136c18.667 18.667 28 41.333 28 68z" fill-opacity=".6"/></symbol><symbol id="icon-favicon_transparent-e29dc" viewBox="0 0 2088 2088"><path d="M1819 682c0 26.667-9.333 49.333-28 68l-724 724-136 136c-18.667 18.667-41.333 28-68 28s-49.333-9.333-68-28l-136-136-362-362c-18.667-18.667-28-41.333-28-68s9.333-49.333 28-68l136-136c18.667-18.667 41.333-28 68-28s49.333 9.333 68 28l294 295 656-657c18.667-18.667 41.333-28 68-28s49.333 9.333 68 28l136 136c18.667 18.667 28 41.333 28 68z" fill-opacity=".6"/></symbol><symbol id="icon-logo-79d8c" viewBox="0 0 2088 2088"><path fill="#d6e4ff" d="M0 0h2088v2088H0z"/><path d="M1819 682c0 26.667-9.333 49.333-28 68l-724 724-136 136c-18.667 18.667-41.333 28-68 28s-49.333-9.333-68-28l-136-136-362-362c-18.667-18.667-28-41.333-28-68s9.333-49.333 28-68l136-136c18.667-18.667 41.333-28 68-28s49.333 9.333 68 28l294 295 656-657c18.667-18.667 41.333-28 68-28s49.333 9.333 68 28l136 136c18.667 18.667 28 41.333 28 68z" fill-opacity=".6"/></symbol><symbol id="icon-logo_large-e624c" viewBox="-945 0 3978 2088"><path fill="#d6e4ff" d="M-945 0h3978v2088H-945z"/><path d="M1819 682c0 26.667-9.333 49.333-28 68l-724 724-136 136c-18.667 18.667-41.333 28-68 28s-49.333-9.333-68-28l-136-136-362-362c-18.667-18.667-28-41.333-28-68s9.333-49.333 28-68l136-136c18.667-18.667 41.333-28 68-28s49.333 9.333 68 28l294 295 656-657c18.667-18.667 41.333-28 68-28s49.333 9.333 68 28l136 136c18.667 18.667 28 41.333 28 68z" fill-opacity=".6"/></symbol><symbol id="icon-moon-o-be382" viewBox="0 0 1792 1792"><path d="M1390 1303q-54 9-110 9-182 0-337-90T698 977t-90-337q0-192 104-357-201 60-328.5 229T256 896q0 130 51 248.5t136.5 204 204 136.5 248.5 51q144 0 273.5-61.5T1390 1303zm203-85q-94 203-283.5 324.5T896 1664q-156 0-298-61t-245-164-164-245-61-298q0-153 57.5-292.5t156-241.5T577 197.5 867 129q44-2 61 39 18 41-15 72-86 78-131.5 181.5T736 640q0 148 73 273t198 198 273 73q118 0 228-51 41-18 72 13 14 14 17.5 34t-4.5 38z" fill="currentColor"/></symbol><symbol id="icon-plus-8cf1c" viewBox="0 0 1792 1792"><path d="M1600 800v192c0 26.667-9.333 49.333-28 68s-41.333 28-68 28h-416v416c0 26.667-9.333 49.333-28 68s-41.333 28-68 28H800c-26.667 0-49.333-9.333-68-28s-28-41.333-28-68v-416H288c-26.667 0-49.333-9.333-68-28s-28-41.333-28-68V800c0-26.667 9.333-49.333 28-68s41.333-28 68-28h416V288c0-26.667 9.333-49.333 28-68s41.333-28 68-28h192c26.667 0 49.333 9.333 68 28s28 41.333 28 68v416h416c26.667 0 49.333 9.333 68 28s28 41.333 28 68z" fill="currentColor"/></symbol><symbol id="icon-question-756be" viewBox="0 0 1792 1792"><path d="M1042.048 1256v240c0 10.667-4 20-12 28s-17.334 12-28 12h-240c-10.667 0-20-4-28-12s-12-17.333-12-28v-240c0-10.667 4-20 12-28s17.333-12 28-12h240c10.666 0 20 4 28 12s12 17.333 12 28zm316-600c0 36-5.167 69.667-15.5 101-10.334 31.333-22 56.833-35 76.5s-31.334 39.5-55 59.5c-23.667 20-42.834 34.5-57.5 43.5-14.667 9-35 20.833-61 35.5-27.334 15.333-50.167 37-68.5 65-18.334 28-27.5 50.333-27.5 67 0 11.333-4 22.167-12 32.5-8 10.333-17.334 15.5-28 15.5h-240c-10 0-18.5-6.167-25.5-18.5s-10.5-24.833-10.5-37.5v-45c0-55.333 21.666-107.5 65-156.5 43.333-49 91-85.167 143-108.5 39.333-18 67.333-36.667 84-56 16.666-19.333 25-44.667 25-76 0-28-15.5-52.667-46.5-74s-66.834-32-107.5-32c-43.334 0-79.334 9.667-108 29-23.334 16.667-59 55-107 115-8.667 10.667-19 16-31 16-8 0-16.334-2.667-25-8l-164-125c-8.667-6.667-13.834-15-15.5-25-1.667-10 .166-19.333 5.5-28 106.666-177.333 261.333-266 464-266 53.333 0 107 10.333 161 31s102.666 48.333 146 83c43.333 34.667 78.666 77.167 106 127.5 27.333 50.333 41 103.167 41 158.5z" fill="currentColor"/></symbol><symbol id="icon-sun-o-4ae0e" viewBox="0 0 2091 2091"><path d="M1621.5 1045c0-78-15.167-152.5-45.5-223.5s-71.333-132.333-123-184-113-92.667-184-123-145.5-45.5-223.5-45.5S893 484.167 822 514.5s-132.333 71.333-184 123-92.667 113-123 184S469.5 967 469.5 1045s15.167 152.5 45.5 223.5 71.333 132.333 123 184 113 92.667 184 123 145.5 45.5 223.5 45.5 152.5-15.167 223.5-45.5 132.333-71.333 184-123 92.667-113 123-184 45.5-145.5 45.5-223.5zm276 277c-2.667 10-9.333 16.667-20 20l-292 96v306c0 10.667-4.333 19.333-13 26-10 6.667-19.667 8-29 4l-292-94-180 248c-6.667 8.667-15.333 13-26 13s-19.333-4.333-26-13l-180-248-292 94c-9.333 4-19 2.667-29-4-8.667-6.667-13-15.333-13-26v-306l-292-96c-10.667-3.333-17.333-10-20-20-3.333-11.333-2-21 4-29l180-248-180-248c-6-8.667-7.333-18.333-4-29 2.667-10 9.333-16.667 20-20l292-96V346c0-10.667 4.333-19.333 13-26 10-6.667 19.667-8 29-4l292 94 180-248c6-8 14.667-12 26-12s20 4 26 12l180 248 292-94c9.333-4 19-2.667 29 4 8.667 6.667 13 15.333 13 26v306l292 96c10.667 3.333 17.333 10 20 20 3.333 10.667 2 20.333-4 29l-180 248 180 248c6 8 7.333 17.667 4 29z" fill="currentColor"/></symbol></defs><view id="view-icon-adjust-7b193" viewBox="0 0 50 50"></view><view id="view-icon-check-2fc04" viewBox="50 0 50 50"></view><view id="view-icon-close-c2f4a" viewBox="100 0 50 50"></view><view id="view-icon-coffee-5fb79" viewBox="150 0 50 50"></view><view id="view-icon-favicon-79d8c" viewBox="200 0 50 50"></view><view id="view-icon-favicon_safe-f2ae5" viewBox="250 0 50 50"></view><view id="view-icon-favicon_transparent-e29dc" viewBox="300 0 50 50"></view><view id="view-icon-logo-79d8c" viewBox="350 0 50 50"></view><view id="view-icon-logo_large-e624c" viewBox="400 0 95.26 50"></view><view id="view-icon-moon-o-be382" viewBox="500 0 50 50"></view><view id="view-icon-plus-8cf1c" viewBox="550 0 50 50"></view><view id="view-icon-question-756be" viewBox="600 0 50 50"></view><view id="view-icon-sun-o-4ae0e" viewBox="650 0 50 50"></view><use id="icon-adjust-7b193" xlink:href="#icon-adjust-7b193" width="50" height="50" x="0" y="0"></use><use id="icon-check-2fc04" xlink:href="#icon-check-2fc04" width="50" height="50" x="50" y="0"></use><use id="icon-close-c2f4a" xlink:href="#icon-close-c2f4a" width="50" height="50" x="100" y="0"></use><use id="icon-coffee-5fb79" xlink:href="#icon-coffee-5fb79" width="50" height="50" x="150" y="0"></use><use id="icon-favicon-79d8c" xlink:href="#icon-favicon-79d8c" width="50" height="50" x="200" y="0"></use><use id="icon-favicon_safe-f2ae5" xlink:href="#icon-favicon_safe-f2ae5" width="50" height="50" x="250" y="0"></use><use id="icon-favicon_transparent-e29dc" xlink:href="#icon-favicon_transparent-e29dc" width="50" height="50" x="300" y="0"></use><use id="icon-logo-79d8c" xlink:href="#icon-logo-79d8c" width="50" height="50" x="350" y="0"></use><use id="icon-logo_large-e624c" xlink:href="#icon-logo_large-e624c" width="95.26" height="50" x="400" y="0"></use><use id="icon-moon-o-be382" xlink:href="#icon-moon-o-be382" width="50" height="50" x="500" y="0"></use><use id="icon-plus-8cf1c" xlink:href="#icon-plus-8cf1c" width="50" height="50" x="550" y="0"></use><use id="icon-question-756be" xlink:href="#icon-question-756be" width="50" height="50" x="600" y="0"></use><use id="icon-sun-o-4ae0e" xlink:href="#icon-sun-o-4ae0e" width="50" height="50" x="650" y="0"></use></svg>