<svg version="1" xmlns="http://www.w3.org/2000/svg" width="933.333" height="933.333" viewBox="0 0 700.000000 700.000000"><path d="M519 318.1c-33.5 3.5-60.6 21-73.6 47.4-6.9 14-8.7 22.3-8.8 39.5-.1 18.9 2.1 29.3 9.1 43.5 11.8 24 33.5 40.3 78.8 59.5 5.5 2.3 16.5 7.3 24.4 11.2 12.2 5.8 15.4 7.9 20.6 13.1 7.6 7.6 9.9 13.5 9.3 23.5-.5 7.9-2.8 13.2-7.9 18.2-8.4 8.1-20 12-36.5 12-19.6 0-34.3-5.9-48-19.5-4.5-4.4-9.8-10.6-11.9-13.8-2.1-3.1-4.1-5.7-4.6-5.7-1.2 0-52.4 30-52.7 31-1 2.8 11.3 20.5 21.3 30.5 26.7 26.6 65.5 39.5 110 36.4 42.8-3 74.1-21.1 88.6-51.4 6.6-13.8 8.2-21.5 8.3-40.5 0-14.2-.3-17.8-2.3-25.5-8.7-33.5-30.3-53.5-82.2-76.4-35.6-15.7-45.9-21.2-51.6-27.3-6.1-6.7-8.9-19.1-6.4-28.5 1.6-5.9 6.7-12.1 12.7-15.4 9.8-5.5 25.7-5.5 37.1.1 6.6 3.3 15.4 11.9 19.4 19 1.2 2.2 2.7 4 3.2 4 .7 0 39.3-24.3 49.9-31.5 1.5-1 1.2-1.8-2.7-7.9-18.4-28.6-42.4-42.7-77.7-45.6-12.8-1.1-14-1.1-25.8.1zM315 436.7c0 120.1-.1 123.8-4.2 133.1-2.7 6-8.9 11.7-15.1 13.9-6.2 2.1-21.1 2.4-27.3.6-9.4-2.9-17.7-10.9-26.4-25.5l-4.1-6.7-26.7 16.1c-14.7 8.9-26.9 16.3-27.1 16.4-.6.5 6.7 13.2 11.1 19.2 15.9 22.1 39.8 36 68.7 40.2 13.5 2 39.4.8 51.5-2.4 35.5-9.3 56.8-32.8 64.3-70.6 1.4-7.6 1.7-21.7 2-129.3l.4-120.7H315v115.7z"/></svg>