<?xml version="1.0" standalone="no"?>
<!DOCTYPE svg PUBLIC "-//W3C//DTD SVG 20010904//EN"
 "http://www.w3.org/TR/2001/REC-SVG-20010904/DTD/svg10.dtd">
<svg version="1.0" xmlns="http://www.w3.org/2000/svg"
 width="700.000000pt" height="700.000000pt" viewBox="0 0 700.000000 700.000000"
 preserveAspectRatio="xMidYMid meet">
<metadata>
Created by potrace 1.14, written by Peter Selinger 2001-2017
</metadata>
<g transform="translate(0.000000,700.000000) scale(0.100000,-0.100000)"
fill="#000000" stroke="none">
<path d="M3421 5766 l-74 -75 -79 40 -78 39 -42 -85 -43 -85 -77 6 -77 7 33
-67 c19 -37 44 -102 56 -145 l23 -78 56 34 c31 19 92 46 136 60 74 25 93 27
245 27 152 0 171 -2 245 -27 44 -14 105 -42 136 -60 l57 -34 17 64 c10 36 35
101 57 145 l39 81 -79 -7 -78 -7 -39 83 c-21 46 -39 84 -41 86 -1 2 -38 -15
-81 -37 l-80 -40 -74 75 c-40 41 -76 74 -79 74 -3 0 -39 -33 -79 -74z m156
-90 l68 -64 68 34 67 34 37 -75 c37 -74 38 -75 75 -75 21 0 38 -4 38 -9 0 -8
-29 -82 -34 -88 -1 -1 -35 11 -76 28 -131 53 -312 72 -460 48 -55 -9 -187 -48
-241 -73 -13 -6 -20 3 -33 40 -9 26 -16 49 -16 51 0 2 18 3 39 3 38 0 39 1 75
75 l35 76 72 -37 72 -36 66 66 c36 36 69 66 73 66 4 0 38 -29 75 -64z"/>
<path d="M3341 5345 c-74 -17 -175 -62 -227 -101 -37 -29 -74 -90 -74 -123 0
-11 22 -147 50 -303 27 -155 49 -282 47 -283 -1 -1 -83 -48 -182 -105 -294
-168 -302 -174 -325 -246 -9 -27 -9 -42 0 -65 16 -38 26 -37 39 4 13 39 51 81
93 103 22 12 50 15 99 12 86 -5 132 -35 206 -133 l53 -70 -315 -3 c-173 -1
-315 -6 -315 -10 0 -4 17 -48 38 -97 l37 -90 6 -815 c4 -632 8 -824 18 -855
45 -138 133 -242 254 -298 103 -49 151 -59 342 -66 186 -8 206 -13 278 -78
l38 -34 39 35 c72 65 88 69 280 77 193 8 259 21 352 71 115 61 193 154 234
278 17 51 19 118 24 865 6 890 1 829 66 957 13 26 24 50 24 53 0 3 -144 5
-320 5 l-320 0 36 53 c82 118 141 157 239 157 81 0 135 -32 167 -100 13 -27
26 -49 29 -50 8 0 29 47 29 66 0 23 -35 87 -62 110 -12 12 -119 77 -236 144
-116 67 -214 125 -216 128 -2 4 19 131 46 282 27 151 47 292 44 312 -9 78 -95
150 -231 194 -101 33 -284 42 -384 19z m380 -103 c71 -23 151 -83 134 -100 -5
-5 -87 -40 -182 -77 l-172 -67 -173 68 c-95 37 -177 71 -182 75 -12 10 16 42
60 70 18 10 65 28 106 39 101 27 312 23 409 -8z m-251 -564 c0 -142 -2 -258
-4 -258 -2 0 -56 27 -120 61 -83 44 -117 67 -121 82 -3 12 -21 114 -40 227
-20 113 -38 217 -41 232 l-5 27 165 -57 166 -57 0 -257z m385 330 c-3 -18 -23
-130 -44 -248 l-37 -215 -114 -62 c-63 -34 -118 -63 -122 -63 -5 0 -8 116 -8
258 l0 257 153 52 c83 28 158 52 165 52 9 1 11 -8 7 -31z m-511 -628 c81 -44
151 -80 156 -80 5 0 78 37 161 82 l151 81 60 -32 c33 -18 89 -50 125 -71 l65
-39 -46 -22 c-64 -29 -124 -91 -189 -190 -97 -151 -203 -224 -327 -224 -126 0
-223 69 -334 234 -71 106 -113 148 -184 182 l-43 21 118 69 c65 37 123 68 129
68 6 1 77 -35 158 -79z m-101 -485 c22 -19 57 -43 78 -53 36 -17 37 -18 41
-82 4 -73 28 -118 81 -150 18 -11 42 -43 61 -82 21 -44 43 -70 69 -87 l38 -25
-43 -43 -42 -43 -197 0 c-121 0 -200 4 -204 10 -4 6 8 10 30 10 23 0 38 5 42
16 8 22 -10 37 -55 43 l-39 6 23 77 c12 43 32 109 42 147 l20 70 -41 86 c-22
47 -43 85 -47 85 -3 0 -35 -32 -70 -71 l-63 -71 -5 -150 -5 -149 -52 6 c-44 6
-53 4 -59 -10 -8 -21 10 -45 33 -45 14 0 14 -2 1 -10 -26 -16 -19 -108 13
-162 14 -25 34 -48 42 -52 9 -3 13 -11 10 -16 -4 -6 1 -22 9 -35 19 -29 66
-34 86 -10 18 22 46 19 322 -30 223 -41 253 -44 272 -31 12 8 69 48 127 90 92
66 106 74 123 62 15 -10 19 -25 20 -72 1 -40 8 -72 23 -101 l23 -43 -640 0
-640 0 0 403 c0 397 -3 447 -35 530 -7 16 11 17 280 17 l287 0 41 -35z m1123
13 c-35 -122 -36 -137 -36 -389 0 -252 0 -257 -20 -252 -27 7 -80 69 -80 93 0
32 -11 50 -32 50 -52 0 -121 65 -132 125 -8 42 -21 39 -30 -9 -12 -63 44 -146
110 -162 16 -4 30 -20 42 -48 22 -49 73 -95 113 -103 l29 -5 0 -114 0 -114
-145 0 -144 0 -35 35 c-48 48 -56 93 -31 181 5 17 -1 24 -35 39 -63 28 -85 67
-84 145 0 65 -1 66 -37 92 -46 33 -68 73 -76 139 -5 46 -7 49 -22 34 -11 -10
-16 -35 -17 -74 -1 -44 -6 -66 -22 -86 l-21 -27 -41 23 c-41 23 -80 84 -80
126 0 14 -12 26 -41 38 -45 21 -73 55 -81 100 -10 54 -2 60 92 60 74 0 93 4
150 32 36 17 81 45 100 61 l35 31 289 1 288 0 -6 -22z m-1258 -165 l19 -38
-41 -142 c-23 -79 -45 -141 -51 -140 -6 2 -11 63 -13 147 l-3 143 33 34 c17
18 33 33 35 33 1 0 11 -17 21 -37z m662 -304 c23 -17 28 -27 24 -48 -3 -15 3
-52 13 -83 l19 -56 -112 -81 -112 -80 -223 40 c-123 22 -225 42 -227 44 -2 2
0 24 3 49 l7 46 192 0 191 0 95 95 c52 52 96 95 98 95 1 0 16 -10 32 -21z
m-706 -113 c36 -44 43 -74 29 -125 -5 -21 -10 -23 -51 -17 -67 9 -122 69 -122
131 0 20 8 29 33 40 53 23 72 19 111 -29z m1266 -720 c0 -178 -5 -347 -10
-376 -24 -128 -99 -224 -217 -281 -35 -17 -67 -28 -70 -25 -5 5 12 121 23 159
5 14 12 17 35 12 40 -9 90 10 124 45 l29 30 -19 33 c-10 17 -46 73 -81 122
-112 162 -124 168 -354 166 -230 -2 -269 -1 -291 7 -23 9 -23 9 -2 16 18 6 20
11 13 39 -16 73 -86 156 -167 196 -23 11 -44 29 -48 38 -3 10 -17 26 -30 36
-25 18 -26 18 -50 -12 l-26 -30 -120 50 c-66 27 -124 49 -130 49 -5 0 26 -45
71 -99 44 -55 80 -105 80 -111 0 -5 -16 -34 -35 -64 -21 -31 -33 -59 -30 -69
4 -8 24 -27 45 -41 37 -25 40 -25 76 -10 37 15 37 15 30 -8 -3 -13 -6 -26 -6
-29 0 -4 -26 -1 -59 6 l-59 12 -73 -41 c-90 -51 -119 -89 -119 -157 0 -63 37
-142 62 -136 15 4 18 -1 18 -32 0 -39 39 -109 81 -147 21 -19 21 -19 60 26 52
60 75 108 61 130 -6 10 -7 23 -2 31 7 11 25 10 107 -9 54 -12 99 -18 101 -13
1 4 8 16 15 26 12 15 23 16 113 7 54 -5 121 -7 147 -2 48 7 48 7 87 -38 22
-25 40 -50 40 -56 0 -6 -10 -45 -23 -86 l-23 -75 -45 -6 c-50 -8 -102 -31
-135 -60 -20 -19 -21 -18 -60 10 -62 44 -97 52 -284 61 -237 12 -306 36 -404
140 -95 102 -106 160 -106 578 l0 312 830 0 830 0 0 -324z m-1101 131 c18 22
21 23 21 6 0 -13 11 -23 35 -31 54 -20 112 -93 126 -160 16 -80 15 -79 41 -96
23 -14 223 -41 238 -31 27 17 106 22 146 10 24 -7 62 -11 86 -8 31 3 52 -1 74
-16 34 -21 166 -201 168 -229 2 -25 -46 -38 -83 -22 -25 10 -40 31 -79 109
-36 74 -52 96 -67 96 -17 0 -20 -6 -17 -45 3 -60 27 -122 57 -150 29 -27 31
-51 10 -152 -25 -124 -22 -118 -55 -118 -17 0 -30 3 -30 8 0 4 8 44 17 90 12
59 14 88 7 99 -6 9 -39 34 -75 55 -35 22 -77 52 -94 68 -27 26 -32 27 -49 15
-41 -31 -121 -39 -237 -25 -109 13 -110 13 -134 -10 l-25 -24 -73 17 c-39 10
-82 20 -94 23 -37 10 -91 -94 -63 -122 6 -6 1 -20 -15 -39 l-25 -30 -20 24
c-31 37 -25 78 25 164 51 86 52 86 155 67 29 -6 54 -9 56 -7 1 1 -6 27 -16 56
-19 57 -18 90 6 175 8 27 14 50 14 51 0 6 -110 -14 -126 -23 -18 -9 -24 -8
-38 7 -9 9 -16 21 -16 25 0 4 21 29 47 57 l46 50 -24 27 c-70 77 -70 77 -2 43
l62 -31 20 27z m-97 -342 c30 -6 37 -11 40 -36 4 -23 1 -28 -11 -25 -66 19
-89 17 -131 -10 -37 -24 -41 -31 -36 -56 5 -24 1 -32 -27 -48 l-32 -20 -13 32
c-22 51 1 93 73 139 34 22 69 36 80 34 11 -2 36 -7 57 -10z m754 -330 c-2 -5
-16 -45 -31 -87 -25 -73 -28 -78 -56 -78 -16 0 -29 3 -29 8 0 4 11 43 25 87
l25 80 -21 28 -20 27 56 -27 c30 -15 53 -32 51 -38z"/>
<path d="M3250 4856 c0 -24 68 -95 112 -117 l38 -19 0 45 c0 45 0 45 -54 69
-83 37 -96 40 -96 22z"/>
<path d="M3670 4841 l-65 -27 -3 -48 -3 -47 33 17 c42 21 95 71 114 107 18 34
10 34 -76 -2z"/>
<path d="M3370 4195 c0 -42 11 -58 25 -35 3 6 20 10 37 10 l30 0 -4 -92 c-3
-51 -8 -101 -12 -110 -7 -16 -1 -18 59 -18 60 0 66 2 60 18 -5 9 -10 59 -13
110 l-4 92 26 0 c15 0 36 -5 47 -10 17 -10 19 -7 19 35 l0 45 -135 0 -135 0 0
-45z"/>
<path d="M3187 2653 c-13 -12 -7 -23 13 -23 11 0 20 7 20 15 0 15 -21 21 -33
8z"/>
<path d="M2511 5274 c-176 -47 -319 -204 -329 -361 -4 -59 -6 -63 -29 -63 -13
0 -45 5 -71 12 -67 16 -148 100 -186 191 -16 37 -32 67 -35 67 -12 -1 -89
-106 -114 -155 -90 -181 -40 -349 148 -493 23 -18 27 -25 15 -29 -135 -55
-244 -143 -389 -317 -138 -163 -166 -192 -241 -238 -112 -70 -244 -108 -372
-108 l-60 0 6 -32 c18 -93 104 -220 186 -274 51 -33 145 -56 203 -48 l47 6 0
-34 c0 -56 -29 -159 -66 -235 -47 -99 -114 -165 -214 -212 l-80 -38 39 -60
c42 -65 103 -114 172 -138 74 -27 212 -18 300 19 13 6 18 -2 23 -43 4 -28 20
-97 37 -153 50 -170 49 -310 -2 -410 -10 -20 -19 -41 -19 -46 0 -11 83 -32
155 -39 68 -6 160 15 206 48 15 10 31 19 36 18 4 0 23 -32 42 -70 58 -123 167
-212 316 -259 53 -17 105 -23 213 -27 81 -3 142 -2 142 3 0 5 -16 33 -35 62
-37 54 -75 176 -75 238 0 110 -62 288 -128 364 l-29 34 48 43 c67 61 99 129
99 213 l0 66 -102 11 c-116 12 -200 40 -260 86 -45 35 -124 124 -117 132 3 2
23 0 44 -6 21 -6 89 -9 149 -7 96 3 118 7 166 30 30 15 77 47 104 70 l49 44
-67 44 c-218 142 -294 325 -236 567 59 246 227 448 562 677 136 93 192 148
208 205 14 49 13 76 -4 116 -21 49 -58 81 -147 126 -42 21 -86 50 -98 65 -45
57 -19 159 68 274 l42 55 -48 12 c-67 16 -208 14 -272 -3z m187 -61 c-2 -5
-16 -32 -31 -61 -52 -100 -55 -195 -6 -263 10 -15 58 -47 106 -72 128 -66 156
-105 127 -176 -21 -51 -37 -66 -154 -144 -234 -156 -388 -301 -491 -460 -106
-163 -145 -298 -137 -470 4 -90 9 -113 37 -173 43 -92 97 -162 171 -220 l61
-48 -23 -18 c-87 -68 -310 -62 -446 12 l-55 29 6 -34 c19 -118 148 -280 271
-340 68 -34 181 -64 239 -65 34 0 36 -25 6 -86 -36 -74 -94 -112 -214 -139
l-29 -6 41 -19 c63 -28 100 -59 138 -115 52 -74 72 -138 91 -281 9 -70 25
-152 35 -182 10 -30 19 -57 19 -60 0 -9 -140 9 -193 25 -173 51 -294 177 -327
341 -7 31 -14 67 -16 80 -4 21 -7 19 -28 -20 -46 -87 -166 -147 -267 -133 -41
6 -49 10 -44 24 37 95 31 269 -15 421 -17 58 -36 154 -43 213 l-12 108 -29
-30 c-50 -52 -118 -75 -221 -76 -66 0 -99 5 -125 18 -39 19 -100 71 -100 84 0
4 19 17 42 28 108 51 218 205 259 362 19 74 38 263 27 263 -3 0 -25 -7 -48
-15 -51 -18 -138 -19 -192 -3 -53 16 -127 83 -161 147 l-28 51 33 0 c48 0 187
35 251 64 120 53 215 135 348 301 149 186 264 270 437 321 13 4 16 41 6 69 -4
9 -39 40 -79 70 -77 57 -124 114 -145 178 -19 60 -9 154 24 220 l27 57 39 -58
c79 -118 198 -169 340 -146 l35 6 0 81 c0 67 5 91 24 132 46 92 144 170 251
199 58 15 174 21 168 9z"/>
<path d="M2065 4635 c63 -52 174 -85 289 -85 l80 0 -92 -53 c-240 -137 -426
-304 -550 -491 -84 -127 -126 -224 -159 -366 -53 -226 -72 -299 -102 -377 -35
-90 -94 -188 -149 -247 -41 -44 -28 -40 35 10 50 41 105 115 153 205 l36 68
12 -89 c24 -177 104 -375 222 -550 32 -47 109 -149 171 -226 67 -83 130 -173
152 -218 21 -42 40 -76 42 -76 2 0 -1 17 -7 38 -20 74 -78 179 -150 267 -196
242 -316 474 -365 707 -21 100 -23 333 -4 423 18 86 68 233 97 285 17 31 23
37 20 20 -15 -74 -17 -144 -6 -208 14 -85 72 -210 124 -267 l37 -40 -30 50
c-16 28 -42 86 -57 130 -24 68 -28 96 -29 190 0 122 13 172 72 287 92 178 272
329 636 538 70 40 129 76 132 79 2 4 -38 -4 -88 -18 -78 -20 -115 -24 -242
-24 -127 -1 -158 2 -205 20 -30 11 -64 23 -75 27 l-20 8 20 -17z"/>
<path d="M4222 5276 l-54 -11 41 -51 c58 -73 91 -149 91 -210 0 -64 -16 -82
-119 -133 -209 -106 -213 -259 -9 -401 40 -27 112 -77 160 -111 320 -223 500
-515 486 -785 -9 -160 -80 -276 -234 -381 l-86 -58 49 -42 c26 -24 73 -55 103
-71 48 -23 69 -27 165 -30 61 -2 129 1 153 6 23 5 42 6 42 2 0 -22 -115 -130
-167 -157 -69 -36 -120 -49 -230 -59 l-83 -7 0 -57 c0 -88 25 -146 91 -212 31
-32 54 -60 49 -63 -5 -3 -27 -33 -49 -66 -49 -73 -86 -186 -96 -289 -11 -123
-33 -200 -75 -268 -22 -35 -40 -66 -40 -69 0 -3 64 -3 143 0 116 4 157 10 224
31 146 47 243 129 309 259 19 38 38 67 42 65 132 -69 198 -80 316 -54 42 10
76 20 76 23 0 4 -12 36 -26 72 -40 100 -43 199 -8 326 14 55 34 136 44 180 9
44 21 79 26 77 220 -72 387 -27 484 129 17 28 30 52 28 53 -2 2 -37 18 -79 38
-91 43 -163 112 -207 200 -33 64 -72 200 -72 247 0 26 1 26 78 27 167 1 284
102 353 301 l18 53 -65 0 c-103 0 -210 26 -312 76 -107 52 -183 121 -322 293
-102 126 -200 210 -300 259 -41 20 -77 38 -80 40 -3 2 9 13 25 25 71 51 127
113 158 176 28 58 32 75 32 146 0 69 -5 89 -32 148 -29 61 -110 177 -123 177
-3 0 -19 -30 -35 -67 -40 -93 -112 -168 -178 -188 -28 -8 -63 -15 -78 -15 -26
0 -27 2 -31 63 -10 163 -150 314 -335 362 -66 17 -184 18 -261 1z m241 -71
c83 -22 133 -50 192 -109 70 -69 99 -145 92 -237 l-4 -67 36 -6 c142 -23 268
29 342 144 18 27 35 50 39 50 4 0 20 -27 35 -61 23 -53 27 -71 24 -138 -3 -65
-9 -85 -34 -126 -17 -27 -55 -69 -85 -93 -106 -84 -121 -101 -118 -133 3 -27
9 -32 69 -52 138 -47 251 -139 401 -328 42 -53 104 -121 138 -152 103 -93 268
-167 409 -183 l61 -7 -27 -49 c-34 -63 -109 -131 -161 -146 -54 -16 -141 -15
-192 3 -23 8 -45 15 -48 15 -10 0 8 -180 24 -248 27 -113 87 -226 157 -295 34
-34 81 -71 105 -81 23 -10 42 -25 42 -32 0 -19 -74 -73 -125 -91 -98 -33 -250
-1 -321 68 l-31 30 -6 -84 c-4 -46 -19 -129 -33 -183 -50 -192 -54 -210 -54
-289 0 -45 7 -107 15 -139 9 -33 13 -61 10 -64 -3 -3 -36 -6 -73 -6 -110 -1
-195 50 -246 148 l-15 29 -6 -39 c-43 -263 -196 -403 -465 -430 -69 -7 -73 -6
-65 12 22 54 36 117 50 224 14 111 37 198 65 251 25 46 106 123 154 145 l49
23 -44 11 c-123 32 -159 56 -195 135 -31 66 -31 85 1 85 59 0 185 34 247 67
78 41 178 140 220 218 27 52 63 159 50 153 -147 -76 -213 -92 -337 -86 -62 4
-92 11 -135 33 l-55 28 35 25 c55 40 145 136 173 184 95 162 94 372 -3 584
-90 200 -262 379 -551 575 -131 89 -169 132 -169 190 0 53 29 82 131 135 98
51 132 87 144 155 8 46 -17 149 -51 206 l-25 43 53 0 c30 0 80 -7 111 -15z"/>
<path d="M4327 4639 c5 -4 76 -47 158 -95 400 -232 578 -402 656 -624 19 -53
23 -87 24 -180 0 -100 -4 -125 -28 -196 -15 -45 -41 -103 -58 -130 l-30 -49
39 42 c85 92 138 252 129 383 -4 42 -9 85 -12 95 -3 11 8 -6 24 -37 77 -143
117 -339 107 -528 -13 -289 -130 -555 -384 -878 -83 -105 -134 -198 -146 -262
-6 -29 0 -23 31 35 46 85 72 123 134 196 245 286 393 579 416 822 l6 69 37
-71 c45 -86 111 -172 159 -210 60 -46 68 -47 28 -2 -109 122 -174 272 -227
529 -52 249 -122 399 -265 571 -125 149 -297 287 -483 389 l-73 39 103 6 c107
5 161 20 236 63 55 32 49 41 -10 15 -108 -48 -313 -52 -486 -8 -51 13 -89 20
-85 16z"/>
<path d="M1442 4579 c-54 -10 -100 -38 -178 -109 -84 -76 -174 -119 -264 -127
-80 -7 -79 -5 -35 -93 49 -97 144 -154 255 -154 83 0 126 20 193 92 29 31 80
86 114 122 42 45 89 81 143 111 44 24 80 47 80 50 0 9 -102 77 -140 92 -48 19
-116 26 -168 16z m145 -84 l36 -15 -44 -29 c-60 -39 -95 -72 -179 -169 -39
-45 -86 -90 -103 -99 -41 -22 -123 -21 -167 2 -37 18 -90 64 -90 76 0 4 29 17
64 29 75 25 140 64 221 135 33 29 74 59 90 68 38 21 125 21 172 2z"/>
<path d="M5443 4580 c-23 -5 -52 -14 -65 -21 -37 -18 -128 -82 -128 -89 0 -3
24 -17 53 -32 80 -39 147 -94 234 -193 88 -100 126 -130 187 -146 82 -22 198
14 262 83 31 32 84 126 84 148 0 5 -20 10 -45 10 -54 0 -151 31 -205 65 -21
13 -67 50 -102 81 -95 86 -178 114 -275 94z m140 -84 c18 -7 60 -39 95 -70 81
-73 132 -104 210 -132 35 -12 66 -25 69 -28 10 -10 -38 -56 -82 -78 -52 -27
-132 -28 -176 -2 -18 11 -72 64 -119 117 -47 54 -107 114 -135 133 -27 19 -51
39 -53 43 -9 26 139 39 191 17z"/>
<path d="M2710 1774 c0 -2 12 -47 26 -100 16 -55 23 -98 18 -103 -5 -5 -43
-20 -84 -35 -118 -42 -118 -39 12 -100 114 -53 297 -126 317 -126 6 0 2 -22
-9 -50 -23 -59 -25 -58 96 -90 285 -75 699 -63 912 25 l32 14 -19 51 c-10 27
-15 50 -10 50 46 0 438 175 423 189 -5 4 -43 20 -84 35 -112 40 -106 29 -76
139 14 52 26 97 26 100 0 3 -48 -17 -107 -43 -96 -43 -321 -119 -395 -135 -24
-5 -28 -10 -28 -40 0 -47 -14 -50 -260 -50 -246 0 -260 3 -260 50 0 30 -4 35
-27 40 -71 15 -318 100 -405 139 -54 25 -98 43 -98 40z m267 -165 c56 -21 107
-39 112 -39 15 0 16 5 -25 -108 l-36 -100 -51 15 c-72 21 -174 59 -238 87
l-53 23 69 23 c39 12 73 24 77 27 4 2 0 25 -8 51 -8 26 -17 57 -20 70 l-6 23
38 -16 c22 -10 85 -35 141 -56z m1204 -7 c-10 -34 -16 -64 -12 -66 3 -2 38
-14 76 -26 l70 -23 -54 -24 c-60 -27 -283 -105 -286 -101 -5 7 -75 201 -73
203 2 1 44 16 93 33 50 17 115 42 145 55 30 14 56 22 58 18 1 -4 -6 -35 -17
-69z m-881 -147 c125 -19 273 -19 412 1 62 9 121 17 132 18 14 1 27 -22 61
-114 23 -63 39 -118 36 -123 -4 -4 -54 -17 -112 -29 -89 -19 -137 -22 -329
-22 -197 0 -238 2 -329 22 -58 13 -108 25 -112 28 -4 2 5 37 20 77 15 39 36
94 45 121 18 46 20 48 50 42 17 -4 74 -13 126 -21z"/>
</g>
</svg>
