<?xml version="1.0" standalone="no"?>
<!DOCTYPE svg PUBLIC "-//W3C//DTD SVG 20010904//EN"
 "http://www.w3.org/TR/2001/REC-SVG-20010904/DTD/svg10.dtd">
<svg version="1.0" xmlns="http://www.w3.org/2000/svg"
 width="700.000000pt" height="700.000000pt" viewBox="0 0 700.000000 700.000000"
 preserveAspectRatio="xMidYMid meet">
<metadata>
Created by potrace 1.14, written by Peter Selinger 2001-2017
</metadata>
<g transform="translate(0.000000,700.000000) scale(0.100000,-0.100000)"
fill="#000000" stroke="none">
<path d="M3412 5898 l-83 -82 -87 44 c-48 25 -90 46 -95 48 -4 2 -28 -42 -54
-98 l-48 -101 -55 5 c-30 4 -71 8 -90 10 -110 13 -150 16 -150 11 0 -3 31 -54
68 -113 38 -59 76 -123 84 -142 24 -52 48 -124 43 -129 -3 -2 -40 3 -82 12
-166 36 -226 39 -331 20 -127 -24 -234 -82 -325 -178 -48 -50 -117 -172 -117
-206 0 -52 -61 5 -98 91 -10 25 -28 65 -39 90 -11 25 -26 61 -33 80 -26 67
-26 67 -132 -63 -55 -67 -112 -147 -128 -178 -51 -100 -71 -220 -52 -307 10
-41 9 -42 -11 -36 -11 4 -51 8 -88 9 -113 4 -197 -33 -314 -140 -53 -48 -130
-90 -180 -100 -16 -3 -77 -8 -135 -11 -58 -4 -106 -7 -107 -8 -2 -2 12 -33 84
-183 40 -83 65 -122 96 -149 60 -52 156 -95 227 -101 33 -3 57 -9 55 -13 -11
-17 -138 -71 -197 -83 -41 -9 -112 -12 -202 -9 -131 3 -138 2 -131 -15 4 -10
17 -52 30 -93 51 -166 84 -233 146 -304 67 -76 174 -137 259 -148 21 -2 25 -8
23 -33 -3 -40 -46 -123 -90 -174 -37 -44 -98 -79 -220 -126 l-73 -28 19 -31
c10 -17 37 -63 60 -102 97 -169 242 -248 440 -238 l76 3 30 -102 c21 -75 29
-123 29 -182 0 -75 -3 -86 -53 -193 -29 -63 -51 -115 -49 -116 2 -1 62 -16
134 -34 142 -35 225 -40 315 -18 l57 13 28 -44 c42 -67 144 -155 226 -195 123
-61 248 -84 441 -82 53 1 96 0 95 -1 -2 -2 -50 -22 -108 -45 -58 -24 -109 -47
-114 -52 -6 -4 -15 -8 -22 -8 -6 0 -29 -7 -50 -16 l-39 -16 165 -80 c201 -97
383 -178 398 -178 15 0 14 -15 -2 -60 l-13 -35 51 -24 c97 -45 226 -81 346
-97 130 -17 166 -19 255 -18 181 2 325 20 456 58 70 20 195 69 207 81 2 1 -4
20 -12 40 -21 50 -21 52 14 60 16 4 32 11 35 16 4 5 12 9 20 9 13 0 85 33 378
173 59 28 104 54 100 57 -5 4 -77 35 -160 70 -84 34 -153 64 -153 65 0 1 55 3
123 3 132 0 180 5 269 28 171 43 302 141 394 292 1 2 26 -4 55 -12 76 -23 156
-21 284 8 52 11 152 41 158 46 5 4 -9 43 -31 86 -81 163 -85 222 -26 435 l18
67 95 -3 c204 -4 325 70 443 272 l57 98 -37 16 c-20 10 -72 31 -115 49 -116
48 -177 115 -227 247 -15 41 -9 49 38 55 109 15 257 133 317 253 16 32 30 64
31 70 2 10 62 198 71 223 4 10 -25 12 -141 9 -128 -3 -156 0 -224 19 -42 12
-99 35 -127 51 l-50 28 60 7 c107 12 213 67 269 141 26 33 148 288 142 295 -2
1 -45 4 -97 7 -181 9 -231 27 -339 125 -65 59 -142 105 -196 117 -39 9 -130 9
-176 1 l-36 -6 9 31 c23 79 2 215 -49 315 -20 39 -177 247 -228 301 -2 2 -15
-22 -29 -55 -77 -177 -113 -248 -138 -272 l-25 -24 -16 50 c-53 158 -198 296
-363 347 -122 38 -215 38 -388 2 -11 -3 -39 -8 -62 -12 l-42 -7 20 61 c24 71
59 135 134 249 l55 83 -57 -6 c-32 -3 -71 -7 -88 -9 -16 -2 -59 -7 -95 -11
l-65 -7 -47 101 -47 101 -95 -47 -94 -46 -83 81 c-46 45 -86 82 -89 82 -3 0
-42 -37 -88 -82z"/>
</g>
</svg>
