<svg height="700.000000pt" version="1.0" viewBox="0 0 700.000000 700.000000" width="700.000000pt" xmlns="http://www.w3.org/2000/svg">
  <path
    d="M 519.886 153.413 C 514.787 155.313 506.787 163.112 401.59 268.109 L 288.794 380.705 L 238.095 329.507 C 180.697 271.409 182.397 272.809 167.898 272.709 C 154.698 272.709 151.798 274.709 121.699 304.908 C 92 334.707 90.5 336.907 90.4 350.206 C 90.4 365.006 85.6 359.506 183.597 457.303 C 252.995 526.501 271.394 544.4 275.394 546.3 C 279.494 548.3 281.994 548.7 289.394 548.7 C 297.194 548.7 299.094 548.3 303.393 546 C 307.093 544 345.892 505.801 456.988 394.505 C 622.683 228.61 609.384 243.11 609.384 228.21 C 609.284 215.511 608.084 213.811 576.685 182.612 C 551.785 157.812 548.886 155.313 543.586 153.313 C 536.186 150.613 527.286 150.613 519.886 153.413 Z"/>
</svg>
