<?xml version="1.0" standalone="no"?>
<!DOCTYPE svg PUBLIC "-//W3C//DTD SVG 20010904//EN"
 "http://www.w3.org/TR/2001/REC-SVG-20010904/DTD/svg10.dtd">
<svg version="1.0" xmlns="http://www.w3.org/2000/svg"
 width="1000.000000pt" height="1000.000000pt" viewBox="0 0 1000.000000 1000.000000"
 preserveAspectRatio="xMidYMid meet">
<metadata>
Created by potrace 1.14, written by Peter Selinger 2001-2017
</metadata>
<g transform="translate(0.000000,1000.000000) scale(0.100000,-0.100000)"
fill="#000000" stroke="none">
<path d="M0 5000 l0 -5000 5000 0 5000 0 0 5000 0 5000 -5000 0 -5000 0 0
-5000z m5116 3464 c113 -26 162 -58 230 -151 25 -34 49 -63 53 -63 4 0 29 -21
55 -47 42 -43 54 -49 116 -59 81 -14 127 -40 174 -97 34 -43 66 -128 66 -178
0 -59 -23 -131 -61 -189 l-39 -61 29 -43 c38 -55 58 -152 44 -218 -6 -25 -7
-51 -4 -57 5 -7 33 -3 86 12 117 31 166 28 252 -17 111 -58 183 -148 183 -227
0 -19 16 -34 45 -41 264 -70 648 -221 805 -319 89 -55 79 -20 111 -384 43
-509 6 -933 -118 -1345 -25 -85 -126 -330 -162 -394 l-19 -34 66 -7 c107 -11
199 -31 337 -72 58 -18 62 -27 70 -143 4 -61 8 -110 9 -110 2 0 142 51 341
125 256 95 231 90 279 53 23 -18 42 -32 43 -33 1 -1 -2 -17 -7 -36 -11 -38
-104 -426 -122 -504 -6 -27 -14 -63 -19 -79 -30 -100 -8 -135 250 -390 121
-121 221 -224 221 -230 0 -7 -82 -39 -182 -72 -829 -274 -1135 -378 -1144
-390 -6 -8 -14 -33 -18 -57 -7 -44 -27 -154 -102 -542 -25 -132 -50 -263 -54
-291 -16 -104 -6 -98 -139 -90 -64 4 -201 16 -306 26 -520 55 -871 78 -1355
89 -206 5 -378 7 -381 5 -4 -2 -134 -6 -290 -8 -156 -3 -367 -10 -469 -15
-179 -10 -225 -14 -565 -46 -203 -19 -565 -39 -572 -31 -3 3 -14 81 -24 173
-11 92 -26 229 -35 303 -8 74 -19 176 -24 225 -19 179 -36 315 -41 318 -2 1
-47 17 -99 34 -663 215 -940 309 -940 319 0 6 53 79 118 160 65 82 148 188
185 236 l67 86 -19 79 c-11 43 -35 139 -55 213 -119 459 -127 493 -117 503 7
7 14 7 23 0 7 -6 47 -22 88 -36 41 -14 127 -44 190 -66 215 -78 291 -103 295
-99 3 2 5 48 6 101 1 58 6 101 13 105 6 4 96 23 199 43 103 20 190 39 194 43
4 3 -12 61 -35 129 -239 708 -312 1350 -201 1765 11 42 23 80 27 84 8 7 411
241 512 296 36 20 86 57 111 83 58 60 84 73 205 103 58 14 142 45 199 73 55
27 130 62 168 78 60 25 66 30 53 44 -28 33 -46 81 -46 128 0 26 -9 80 -20 118
-26 93 -25 152 5 271 32 133 48 173 88 236 27 42 35 67 39 119 6 67 30 126 76
187 37 49 145 122 209 142 31 9 63 26 72 37 29 36 65 52 178 78 117 26 244 32
318 15 31 -7 43 -6 56 6 21 18 93 42 131 43 15 1 57 -6 94 -15z"/>
<path d="M4990 8319 c-14 -5 -36 -21 -50 -34 -25 -23 -26 -23 -95 -8 -77 16
-207 13 -309 -8 -44 -9 -67 -21 -92 -46 -22 -22 -56 -40 -97 -53 -147 -46
-230 -143 -212 -250 6 -35 3 -46 -28 -89 -87 -120 -122 -238 -115 -386 4 -82
10 -111 33 -163 28 -63 67 -102 102 -102 10 0 25 -5 33 -10 12 -8 11 -13 -8
-33 -34 -36 -62 -119 -62 -182 l0 -55 -67 0 c-60 0 -83 -7 -198 -56 -71 -31
-179 -69 -238 -85 -127 -34 -137 -39 -197 -91 -25 -22 -108 -76 -185 -120
-191 -110 -277 -168 -293 -198 -15 -28 -9 -294 9 -430 61 -448 242 -917 522
-1353 38 -59 67 -111 64 -114 -8 -8 -235 -52 -270 -53 -56 0 -169 196 -275
480 -57 151 -164 501 -192 625 -24 106 -24 82 0 -105 55 -416 161 -765 296
-978 24 -36 30 -54 22 -57 -7 -2 -83 -22 -168 -44 -85 -22 -191 -51 -235 -63
l-80 -23 1 -138 c1 -159 8 -151 -108 -113 -70 23 -369 117 -415 131 -13 3 -23
3 -23 -1 0 -4 43 -137 96 -296 l96 -289 -49 -57 c-149 -173 -265 -314 -261
-318 5 -5 143 -46 613 -185 149 -44 284 -84 302 -90 37 -12 34 -1 58 -224 57
-520 74 -671 81 -714 l5 -34 137 6 c75 3 241 11 367 16 127 6 293 15 370 21
77 5 203 14 280 20 601 43 1366 41 1860 -5 183 -17 493 -42 641 -51 l102 -6
21 98 c12 55 28 126 36 159 8 33 35 155 60 270 69 319 97 429 109 441 6 6 58
26 116 43 58 18 152 48 210 66 58 19 173 55 255 80 83 26 219 69 304 96 85 27
159 49 165 49 6 0 18 4 26 10 15 9 7 19 -243 278 l-110 113 58 177 c32 97 77
236 100 309 l42 131 -81 -30 c-45 -17 -124 -45 -176 -63 -94 -33 -268 -96
-302 -110 -17 -7 -18 4 -18 148 l0 155 -111 26 c-61 15 -192 40 -292 57 -100
17 -183 32 -185 33 -1 2 15 32 36 67 134 221 232 485 306 829 19 91 66 400 66
438 0 15 -20 -31 -44 -103 -162 -481 -361 -964 -471 -1146 -43 -70 -30 -67
-235 -39 -79 11 -145 20 -147 20 -13 0 4 36 44 90 263 361 472 842 558 1287
31 155 46 302 52 500 l6 203 -108 50 c-151 71 -494 211 -575 235 -42 12 -50
25 -50 78 0 27 -5 67 -12 89 -13 45 -73 117 -121 147 l-32 20 -135 -33 c-74
-19 -153 -43 -175 -55 -30 -16 -57 -21 -113 -21 l-74 0 35 39 c32 35 67 122
67 165 0 9 5 35 12 59 16 62 4 105 -48 167 -25 30 -54 71 -64 91 l-19 36 27
15 c42 25 103 90 118 125 31 73 6 156 -57 189 -24 12 -46 15 -87 10 l-54 -6
-71 73 c-40 40 -83 82 -97 94 -14 11 -43 44 -65 71 -22 28 -44 51 -48 52 -4 0
-20 9 -35 20 -32 24 -107 34 -142 19z m98 -155 c19 -15 43 -46 53 -69 14 -31
28 -46 49 -54 17 -5 65 -46 106 -90 87 -91 115 -106 179 -98 52 8 56 1 18 -35
-37 -34 -61 -46 -121 -59 l-50 -10 8 -34 c13 -57 64 -156 122 -236 49 -67 53
-78 41 -94 -7 -11 -13 -42 -13 -71 0 -79 -35 -116 -128 -134 -64 -12 -89 -4
-97 28 -14 56 -53 90 -163 143 -59 28 -115 58 -124 66 -25 23 -24 -2 2 -45 30
-49 68 -78 134 -103 72 -28 107 -56 129 -106 14 -32 60 -252 122 -578 7 -38
21 -108 30 -154 15 -79 15 -87 0 -128 -10 -25 -31 -55 -51 -69 l-34 -26 0
-238 0 -238 99 -119 c124 -149 134 -176 135 -378 l1 -140 -41 -85 c-22 -47
-54 -99 -71 -115 -70 -70 -426 -222 -499 -213 -22 2 -36 19 -79 93 -28 50 -77
158 -108 240 -31 83 -83 222 -117 309 -33 88 -60 168 -60 178 0 20 28 40 83
59 59 21 69 37 52 84 -7 22 -35 101 -60 175 -63 181 -96 244 -143 274 -39 25
-92 74 -92 86 0 3 44 19 97 34 151 42 203 97 221 235 10 71 -4 179 -31 244
-22 52 -110 141 -176 179 -47 27 -66 32 -121 33 -36 0 -84 -4 -107 -9 l-43 -9
0 52 c0 29 7 65 15 80 16 33 65 77 95 86 23 7 26 37 6 54 -7 6 -26 39 -42 74
-24 54 -28 77 -32 177 -3 112 -1 130 37 250 l11 35 -35 -40 c-59 -70 -102
-172 -124 -300 l-8 -50 -19 40 c-27 57 -25 198 5 280 41 113 126 216 234 285
33 21 55 40 50 43 -21 13 -100 18 -127 7 -44 -16 -45 -2 -3 35 57 49 139 68
276 63 61 -2 111 0 111 4 0 12 -65 46 -102 53 -21 4 -38 11 -38 15 0 13 125
23 214 17 94 -6 154 -27 212 -73 l42 -34 17 37 c11 23 15 49 12 74 -3 22 -3
39 1 39 3 0 21 -12 40 -26z m946 -1114 c32 -38 42 -91 27 -141 -16 -52 -48
-84 -96 -97 -22 -5 -138 -36 -257 -68 -120 -31 -220 -55 -223 -53 -4 5 -55
253 -55 270 0 7 143 43 375 94 66 15 131 30 145 35 31 9 50 0 84 -40z m-1563
-315 c16 -16 41 -54 56 -85 22 -45 26 -70 27 -142 1 -133 -9 -142 -239 -203
-228 -61 -368 -99 -500 -137 -183 -53 -210 -53 -283 -1 -81 56 -122 127 -122
208 0 73 31 130 104 190 50 41 53 42 376 109 96 20 236 50 310 66 168 36 228
35 271 -5z m1372 -231 c-1 -93 -6 -182 -11 -199 l-9 -30 -134 3 c-74 2 -141 5
-149 8 -12 3 -14 17 -12 62 2 32 -2 85 -8 118 -26 126 -39 107 106 152 172 53
197 60 209 57 6 -1 9 -65 8 -171z m110 90 c57 -70 102 -137 147 -218 l32 -58
-25 -27 c-18 -18 -25 -36 -24 -61 1 -38 -49 -149 -70 -157 -7 -3 -13 -20 -13
-38 0 -38 -24 -66 -34 -39 -3 8 -6 26 -6 38 0 12 -7 31 -15 42 -8 10 -33 56
-54 101 -35 73 -38 85 -30 120 6 21 13 111 16 201 4 112 9 162 17 159 6 -2 33
-30 59 -63z m245 -446 c39 -131 51 -189 63 -301 11 -103 8 -281 -4 -294 -4 -3
-29 9 -57 27 -51 33 -51 33 -44 74 3 23 11 50 16 60 6 11 12 60 14 109 3 49 9
97 14 106 9 18 3 61 -9 61 -16 0 -31 -26 -31 -52 0 -34 -18 -75 -36 -82 -22
-8 -24 8 -8 65 10 35 15 90 14 156 -2 159 31 193 68 71z m-1904 -52 c26 -53
51 -79 112 -115 26 -16 37 -36 71 -133 61 -171 61 -167 13 -211 -22 -21 -46
-50 -54 -65 -9 -18 -28 -32 -52 -40 -21 -6 -39 -10 -39 -9 -1 1 -11 16 -22 32
-11 17 -30 47 -42 68 -11 20 -30 53 -42 73 -23 41 -43 64 -57 64 -19 0 -35 29
-23 43 6 8 11 29 10 48 0 19 0 53 0 77 1 41 0 42 -33 42 -18 0 -39 7 -46 15
-20 24 -30 17 -30 -21 0 -20 -9 -49 -20 -65 l-21 -28 21 -13 c11 -7 20 -23 20
-35 0 -13 4 -23 9 -23 18 0 20 -32 6 -67 -8 -19 -15 -43 -15 -52 0 -9 -5 -23
-10 -31 -8 -12 -18 -6 -60 35 l-52 50 7 60 c13 131 46 283 63 290 21 9 233 63
248 64 7 1 24 -23 38 -53z m-349 -78 c-4 -24 -15 -101 -24 -172 -16 -123 -18
-129 -46 -149 -17 -12 -45 -34 -63 -49 -18 -15 -37 -28 -42 -28 -17 0 -11 44
10 75 11 17 20 33 20 37 0 3 -30 9 -67 12 -38 3 -81 7 -98 9 -152 20 -145 18
-161 49 -13 25 -13 41 -3 106 15 103 16 105 37 97 61 -25 217 -8 362 39 78 25
84 23 75 -26z m2301 -560 c-18 -132 -101 -347 -186 -484 -72 -115 -86 -132
-101 -117 -10 10 -5 43 25 155 20 79 54 209 74 290 21 81 43 153 49 160 5 7
11 31 12 53 3 65 15 69 78 27 l55 -36 -6 -48z m-1826 32 c0 -16 9 -52 20 -80
27 -69 26 -78 -14 -85 -28 -6 -39 -2 -65 21 -31 27 -61 76 -61 98 0 11 97 76
112 76 5 0 8 -13 8 -30z m78 -252 c32 -85 102 -259 112 -278 12 -25 22 -80 14
-80 -17 0 -74 25 -74 32 0 4 9 8 20 8 11 0 20 6 20 14 0 14 -42 26 -95 26 -58
0 -92 18 -99 52 -10 50 -7 63 16 73 30 13 34 38 13 82 -19 39 -14 111 8 125
28 18 43 6 65 -54z m1222 10 c0 -11 -31 -150 -37 -164 -4 -11 -12 -25 -19 -31
-7 -7 -15 -31 -19 -53 -11 -63 -28 -49 -21 18 19 186 16 175 49 204 28 24 47
34 47 26z m-115 -823 c524 -32 1007 -93 1480 -188 l110 -22 3 -343 c2 -270 0
-342 -10 -342 -7 0 -79 13 -160 30 -434 87 -887 148 -1443 192 -212 17 -1029
17 -1225 0 -558 -48 -888 -100 -1380 -218 -54 -13 -126 -33 -222 -60 -17 -5
-18 16 -18 339 l0 344 88 21 c408 99 1054 199 1492 232 437 32 907 38 1285 15z
m2030 -557 c-15 -46 -42 -132 -61 -191 l-34 -109 118 -124 c64 -68 118 -130
120 -138 2 -8 -20 -21 -60 -34 -173 -57 -678 -212 -692 -212 -9 0 -16 5 -16
11 0 12 67 281 81 325 l10 31 97 -18 c53 -10 103 -18 110 -19 9 0 12 48 13
203 1 111 4 215 8 231 5 24 15 32 56 47 28 9 100 35 160 57 61 22 111 36 113
31 2 -4 -9 -45 -23 -91z m-5138 -54 l113 -35 0 -230 c0 -215 1 -230 18 -225
57 17 178 46 192 46 14 0 19 -21 29 -137 7 -76 14 -148 17 -160 3 -17 0 -23
-13 -23 -10 0 -106 27 -213 60 -107 33 -246 74 -307 92 -62 18 -113 36 -113
41 0 4 43 64 95 133 80 106 94 130 89 152 -7 31 -73 288 -81 316 -5 17 -1 18
28 12 18 -3 84 -22 146 -42z m2236 -371 c9 -49 26 -149 37 -223 12 -74 27
-169 35 -210 7 -41 22 -127 32 -190 10 -63 19 -104 21 -90 3 26 59 395 93 615
11 72 22 143 25 158 l6 28 131 -3 132 -3 3 -607 2 -608 -33 0 c-19 0 -62 3
-95 6 l-62 7 -2 375 -3 375 -28 -189 c-46 -315 -76 -512 -83 -539 -6 -25 -8
-25 -98 -25 l-92 0 -27 168 c-26 162 -75 450 -95 562 -7 41 -10 -47 -11 -336
-1 -347 -3 -393 -17 -398 -9 -3 -49 -6 -90 -6 l-74 0 0 604 0 605 38 4 c20 2
83 4 138 5 l102 2 15 -87z m-540 42 c47 -19 83 -58 113 -120 l24 -50 0 -401
c0 -465 -2 -476 -80 -555 -68 -68 -138 -92 -261 -87 -84 3 -100 6 -137 30 -22
15 -54 49 -69 75 l-28 48 0 430 0 430 23 47 c71 141 269 214 415 153z m1573
-8 c102 -52 155 -147 158 -281 1 -81 15 -74 -116 -61 l-66 6 -7 68 c-7 75 -10
80 -45 104 -67 46 -130 4 -130 -87 0 -72 35 -140 117 -227 38 -41 86 -92 106
-114 55 -58 114 -161 132 -230 42 -165 -14 -326 -130 -370 -34 -13 -65 -16
-127 -13 -174 9 -267 89 -298 255 -12 66 -13 150 -2 156 4 3 45 2 92 -2 l85
-6 6 -77 c8 -91 25 -123 74 -137 80 -22 124 30 110 127 -10 68 -42 117 -163
246 -158 169 -202 254 -202 388 0 131 43 219 130 266 40 21 55 23 135 20 73
-4 100 -9 141 -31z m389 -40 l70 -12 5 -248 5 -249 33 69 c19 37 72 141 118
229 l84 161 92 -18 c50 -11 93 -21 96 -23 2 -2 -27 -60 -64 -128 -36 -67 -85
-157 -107 -198 -22 -41 -51 -95 -64 -119 l-24 -43 46 -127 c26 -69 68 -184 95
-256 26 -71 60 -164 75 -205 14 -41 31 -86 36 -99 5 -13 8 -26 5 -29 -3 -2
-48 4 -101 14 l-95 19 -25 67 c-14 38 -36 98 -49 136 -37 103 -64 177 -87 239
l-22 56 -23 -39 c-23 -37 -24 -47 -24 -226 l0 -188 -22 0 c-13 0 -58 5 -100
12 l-78 11 0 608 0 609 28 -6 c15 -2 59 -10 97 -17z m-2465 -76 l0 -89 -62
-10 c-35 -6 -80 -14 -100 -17 l-38 -6 0 -514 c0 -480 -1 -514 -17 -519 -24 -7
-143 -26 -165 -26 -17 0 -18 31 -18 514 l0 513 -87 -18 c-49 -10 -94 -18 -100
-19 -10 0 -13 23 -13 85 0 79 2 86 23 95 21 9 219 47 362 70 39 6 93 14 120
19 101 18 95 23 95 -78z"/>
<path d="M3979 3290 l-30 -29 3 -391 c3 -374 4 -392 22 -406 35 -25 94 -18
127 15 l29 29 0 386 c0 373 -1 387 -20 406 -32 32 -94 27 -131 -10z"/>
</g>
</svg>
